<svg xmlns="http://www.w3.org/2000/svg" xmlns:xlink="http://www.w3.org/1999/xlink" width="500" zoomAndPan="magnify" viewBox="0 0 375 374.999991" height="500" preserveAspectRatio="xMidYMid meet" version="1.0"><defs><clipPath id="id1"><path d="M 63.410156 0 L 311.660156 0 L 311.660156 375 L 63.410156 375 Z M 63.410156 0 " clip-rule="nonzero"/></clipPath><clipPath id="id2"><path d="M 63.410156 0 L 311.660156 0 L 311.660156 375 L 63.410156 375 Z M 63.410156 0 " clip-rule="nonzero"/></clipPath></defs><g clip-path="url(#id1)"><path fill="#f991cb" d="M 311.390625 169.847656 C 311.289062 159.480469 310.8125 149.117188 309.566406 138.804688 C 308.386719 129.058594 306.242188 119.542969 302.574219 110.441406 C 301.648438 108.140625 301.582031 106.144531 302.308594 103.964844 C 305.652344 93.925781 307.851562 83.636719 309.242188 73.152344 C 310.011719 67.355469 310 61.519531 310.355469 55.707031 C 310.574219 52.132812 311.167969 48.539062 310.558594 44.914062 C 310.359375 43.722656 309.609375 43.054688 308.800781 43.0625 C 304.394531 43.101562 300.070312 42.144531 295.652344 42.199219 C 282.546875 42.359375 269.636719 43.789062 257.023438 47.457031 C 255.882812 47.789062 255.042969 47.609375 254.035156 46.96875 C 248.605469 43.515625 242.964844 40.34375 236.910156 38.21875 C 225.363281 34.164062 213.507812 31.515625 201.121094 32.539062 C 199.894531 32.640625 199.09375 32.335938 198.246094 31.359375 C 196.363281 29.191406 194.082031 27.417969 191.878906 25.574219 C 186.394531 20.996094 180.144531 17.5625 174.199219 13.679688 C 168.058594 9.675781 161.441406 6.527344 154.953125 3.148438 C 151.703125 1.457031 148.335938 0.117188 144.527344 0.00390625 C 143.207031 -0.0351562 142.742188 0.300781 142.324219 1.335938 C 141.070312 4.429688 139.761719 7.503906 138.519531 10.601562 C 136.128906 16.539062 134.046875 22.585938 132.214844 28.71875 C 130.046875 35.957031 128.03125 43.230469 126.351562 50.601562 C 124.554688 58.46875 123.085938 66.34375 124.347656 74.453125 C 124.472656 75.261719 124.203125 75.902344 123.777344 76.492188 C 119.816406 82 116.59375 87.917969 113.851562 94.113281 C 111.035156 100.476562 108.058594 106.84375 106.730469 113.667969 C 105.054688 122.289062 102.378906 130.703125 102.332031 139.699219 C 102.296875 146.347656 101.292969 153.003906 101.71875 159.703125 C 101.957031 163.453125 102.882812 164.585938 106.644531 165.265625 C 106.953125 165.324219 107.449219 165.195312 107.355469 165.703125 C 107.132812 166.925781 107.84375 168.441406 105.882812 169.074219 C 102.847656 170.050781 100.496094 172.210938 97.996094 174.09375 C 93.390625 177.558594 90.332031 182.558594 85.59375 185.996094 C 80.449219 189.722656 76.625 194.726562 73.933594 200.722656 C 71.164062 206.890625 68.566406 213.054688 67.210938 219.679688 C 64.261719 234.09375 65.054688 248.285156 69.9375 262.199219 C 73.609375 272.667969 79.285156 281.816406 87.535156 289.34375 C 95.0625 296.210938 103.757812 300.550781 113.847656 302.09375 C 117.019531 302.578125 120.273438 302.464844 123.351562 303.695312 C 126.734375 305.050781 130.351562 305.589844 133.910156 306.328125 C 138.535156 307.285156 142.945312 305.308594 147.476562 305.53125 C 148.796875 305.597656 149.59375 303.761719 150.613281 304.667969 C 151.5625 305.511719 151.945312 306.972656 152.644531 308.121094 C 157.078125 315.363281 163.085938 321.15625 169.6875 326.496094 C 167.789062 328.011719 165.496094 328.488281 163.34375 329.167969 C 148.886719 333.742188 134.230469 337.609375 119.5 341.1875 C 118.019531 341.546875 116.703125 342.011719 115.738281 343.25 C 115.480469 343.578125 115.054688 344.261719 114.65625 343.75 C 114.125 343.058594 112.941406 343.074219 112.8125 342.1875 C 112.527344 340.257812 112.40625 340.132812 110.570312 340.910156 C 105.632812 343.007812 100.636719 344.960938 95.472656 346.425781 C 87.601562 348.660156 79.691406 350.757812 71.792969 352.886719 C 69.226562 353.574219 66.898438 354.496094 65.683594 357.140625 C 64.832031 358.984375 63.5 360.515625 63.65625 362.863281 C 63.902344 366.597656 65.828125 369.433594 67.820312 372.308594 C 68.777344 373.691406 69.808594 374.988281 71.578125 373.191406 C 71.824219 372.9375 72.34375 372.804688 72.714844 372.839844 C 76.492188 373.234375 79.882812 371.726562 83.230469 370.453125 C 94.742188 366.078125 106.332031 361.964844 118.066406 358.195312 C 125.105469 355.933594 132.207031 353.898438 139.320312 351.9375 C 151.832031 348.484375 164.046875 344.324219 175.519531 338.203125 C 177.210938 337.300781 179.328125 337.222656 180.648438 335.640625 C 181.929688 334.097656 183.167969 333.875 184.433594 335.277344 C 186.285156 337.320312 188.261719 339.183594 190.402344 340.925781 C 194.269531 344.070312 198.421875 346.75 202.898438 348.871094 C 208.496094 351.523438 214.570312 352.660156 220.601562 353.878906 C 221.355469 354.03125 222.175781 354.191406 222.675781 353.585938 C 223.585938 352.480469 224.792969 352.601562 225.96875 352.53125 C 232.53125 352.144531 238.796875 350.445312 244.828125 347.988281 C 252.894531 344.707031 260.253906 340.164062 267.074219 334.75 C 274.980469 328.46875 281.933594 321.257812 288 313.1875 C 294.609375 304.402344 299.363281 294.628906 303.230469 284.40625 C 307.992188 271.816406 309.789062 258.925781 306.390625 245.675781 C 304.132812 236.867188 302.035156 227.921875 293.742188 222.351562 C 293.09375 221.917969 293.152344 221.472656 293.785156 220.910156 C 296.625 218.375 298.472656 215.113281 300.382812 211.878906 C 302.347656 208.554688 303.75 204.589844 307.226562 202.613281 C 310.207031 200.921875 310.402344 198.316406 310.675781 195.679688 C 311.570312 187.09375 311.472656 178.457031 311.390625 169.847656 Z M 222.179688 65.078125 C 226.011719 69.988281 230.59375 74.414062 233.261719 80.089844 C 235.550781 84.960938 237.8125 89.863281 239.960938 94.808594 C 243.257812 102.394531 245.246094 110.394531 247.203125 118.410156 C 249.464844 127.695312 251.179688 137.0625 251.960938 146.578125 C 252.84375 157.273438 252.863281 167.980469 251.945312 178.675781 C 251.722656 181.28125 251.257812 183.867188 250.890625 186.582031 C 243.445312 185.089844 236.007812 185.230469 228.59375 186.375 C 219.527344 187.773438 210.902344 190.457031 203.21875 195.660156 C 202.902344 195.878906 202.664062 196.210938 202.390625 196.488281 C 201.816406 196.050781 201.277344 196.246094 200.742188 196.574219 C 198.160156 196.367188 195.972656 197.59375 193.710938 198.523438 C 192.597656 198.980469 191.523438 199.523438 190.367188 200.058594 C 186.328125 186.292969 177.90625 175.878906 166.683594 167.375 C 161.335938 163.324219 155.585938 160.703125 148.925781 160.066406 C 148.066406 159.980469 147.195312 159.953125 146.328125 159.976562 C 145.609375 160 144.242188 159.902344 144.363281 159.714844 C 145.023438 158.699219 143.703125 157.289062 145.15625 156.492188 C 145.957031 156.050781 146.671875 155.371094 147.277344 154.671875 C 148.394531 153.371094 149.347656 151.84375 148.945312 150.09375 C 147.738281 144.84375 148.851562 139.632812 149.222656 134.453125 C 149.898438 125.058594 152.34375 115.941406 156.011719 107.3125 C 162.722656 91.511719 172.484375 77.90625 187.015625 68.292969 C 193.320312 64.121094 200.078125 60.863281 207.78125 59.769531 C 213.699219 58.929688 218.398438 60.230469 222.179688 65.078125 Z M 222.179688 65.078125 " fill-opacity="1" fill-rule="nonzero"/></g><path fill="#f991cb" d="M 158.914062 7.433594 C 165.914062 10.480469 172.332031 14.554688 178.71875 18.695312 C 184.96875 22.746094 191.375 26.589844 196.265625 32.847656 C 193.972656 33.140625 192.160156 33.214844 190.4375 33.636719 C 188.625 34.078125 187.328125 33.253906 186.511719 32.015625 C 182.757812 26.355469 177.601562 22.109375 172.445312 17.894531 C 168.039062 14.296875 163.566406 10.761719 158.914062 7.433594 Z M 66.0625 361.070312 C 66.144531 364.652344 68.027344 367.4375 70.09375 370.140625 C 70.277344 370.378906 70.5 370.410156 70.792969 370.386719 C 73.230469 370.203125 74.761719 367.941406 74.105469 365.480469 C 73.515625 363.265625 71.910156 361.894531 70.144531 360.648438 C 68.785156 360.789062 67.421875 360.929688 66.0625 361.070312 Z M 107.757812 163.109375 C 106.21875 163.675781 106.535156 162.117188 105.894531 161.753906 C 102.867188 160.015625 103.070312 157.066406 103.054688 154.226562 C 103.011719 145.886719 103.601562 137.554688 105.214844 129.40625 C 106.800781 121.378906 107.597656 113.195312 110.59375 105.402344 C 115.492188 92.667969 121.390625 80.609375 130.265625 70.113281 C 134.128906 65.550781 138.007812 61.03125 142.535156 57.117188 C 142.808594 56.878906 143.101562 56.664062 143.386719 56.445312 C 144.25 55.789062 145.0625 55.128906 145.183594 53.871094 C 147.125 52.03125 149.5625 50.84375 151.503906 48.972656 C 152.667969 47.847656 153.703125 46.429688 155.449219 46.039062 C 155.226562 46.546875 154.554688 47.082031 155.347656 47.582031 C 155.960938 47.96875 156.542969 47.570312 156.976562 47.136719 C 162.167969 41.910156 169.097656 40.140625 175.746094 38.046875 C 183.765625 35.523438 192.113281 34.421875 200.515625 34.117188 C 203.488281 34.007812 206.46875 34.007812 209.441406 34.191406 C 211.226562 34.296875 213.007812 34.472656 214.78125 34.722656 C 215.753906 36.308594 217.574219 36.015625 218.933594 36.226562 C 223.320312 36.902344 226.992188 39.277344 231.007812 40.816406 C 233.941406 41.941406 236.03125 44.28125 238.433594 46.207031 C 240.621094 47.960938 242.640625 49.652344 243.6875 52.308594 C 244.035156 53.1875 244.492188 53.648438 245.152344 52.492188 C 245.441406 51.984375 245.585938 51.027344 246.523438 51.847656 C 246.25 52.296875 245.980469 52.742188 245.410156 53.675781 C 245.9375 53.445312 246.460938 53.214844 246.972656 52.984375 C 250.578125 51.394531 253.90625 49.980469 257.511719 49.414062 C 257.585938 50.476562 258.457031 50.792969 259.195312 51.257812 C 262.164062 53.117188 265.480469 52.511719 268.652344 52.445312 C 274.824219 52.3125 280.953125 51.59375 287.058594 50.628906 C 293.484375 49.617188 299.890625 48.3125 306.460938 48.933594 C 306.144531 53.777344 305.367188 58.535156 304.003906 63.210938 C 301.570312 71.535156 299.292969 79.902344 296.585938 88.144531 C 292.757812 99.820312 288.910156 111.488281 283.839844 122.703125 C 282.578125 125.492188 281.589844 128.410156 279.722656 130.90625 C 279.148438 131.671875 279.496094 132.792969 278.964844 133.707031 C 278.664062 134.226562 278.222656 135.296875 278.867188 135.757812 C 279.15625 135.960938 279.378906 135.90625 279.585938 135.753906 C 279.859375 135.546875 280.09375 135.164062 280.398438 134.964844 C 280.472656 134.914062 280.554688 134.875 280.640625 134.855469 C 281.105469 140.640625 281.867188 146.421875 281.9375 152.214844 C 281.996094 156.761719 282.121094 161.300781 282.273438 165.84375 C 282.460938 171.523438 282.539062 177.210938 282.714844 182.890625 C 282.761719 184.433594 283.316406 185.941406 283.050781 187.511719 C 282.730469 189.410156 283.277344 190.207031 285.171875 190.382812 C 288.945312 190.738281 292.710938 191.050781 296.523438 190.808594 C 300.671875 190.546875 304.878906 191.175781 308.96875 189.984375 C 308.820312 191.917969 308.820312 193.878906 308.492188 195.785156 C 307.664062 200.566406 304.742188 203.878906 300.378906 205.621094 C 288.808594 210.238281 276.835938 213.332031 264.382812 214.433594 C 262.710938 214.582031 262.640625 214.007812 262.933594 212.667969 C 265.484375 200.976562 266.90625 189.144531 267.429688 177.183594 C 268.074219 162.492188 267.496094 147.867188 265.628906 133.296875 C 263.738281 118.542969 260.414062 104.09375 255.316406 90.125 C 252.371094 82.054688 248.636719 74.308594 243.949219 67.023438 C 239.148438 59.566406 233.671875 52.8125 226.300781 47.785156 C 220.597656 43.898438 214.375 41.597656 207.332031 41.945312 C 206.359375 41.996094 205.945312 42.304688 206.007812 43.1875 C 206.0625 43.980469 206.417969 44.5625 207.382812 44.554688 C 219.636719 44.453125 228.28125 51.082031 235.925781 59.722656 C 242.34375 66.976562 246.875 75.34375 250.78125 84.105469 C 256.566406 97.082031 260.300781 110.648438 262.722656 124.636719 C 266.285156 145.203125 266.949219 165.835938 264.835938 186.582031 C 263.949219 195.285156 262.734375 203.9375 260.621094 212.441406 C 260.492188 212.945312 260.628906 213.652344 259.925781 213.730469 C 259.261719 213.804688 258.738281 213.367188 258.648438 212.695312 C 258.519531 211.707031 257.832031 211.21875 257.109375 210.769531 C 255.25 209.621094 254.039062 207.851562 252.632812 206.261719 C 252 205.546875 251.925781 204.636719 251.960938 203.796875 C 252.09375 200.746094 251.894531 197.691406 252.027344 194.660156 C 252.179688 191.125 252.917969 187.617188 253.417969 184.097656 C 254.539062 176.265625 255.035156 168.386719 255.199219 160.484375 C 255.429688 149.324219 254.804688 138.191406 252.945312 127.199219 C 250.851562 114.816406 247.597656 102.714844 242.382812 91.21875 C 237.992188 81.546875 232.574219 72.535156 225.339844 64.703125 C 224.054688 63.316406 222.605469 62.058594 221.117188 60.898438 C 219.195312 59.398438 217.820312 57.324219 215.898438 55.898438 C 213.898438 54.410156 211.597656 53.3125 209.417969 52.074219 C 204.902344 49.503906 200.109375 47.644531 195.003906 46.679688 C 189.425781 45.621094 183.828125 45.628906 178.226562 46.605469 C 177.59375 46.714844 176.96875 46.851562 176.351562 47.007812 C 174.496094 47.472656 172.6875 48.089844 170.835938 48.566406 C 170.761719 48.546875 170.683594 48.535156 170.605469 48.519531 C 170.371094 48.480469 170.140625 48.429688 170.019531 48.160156 C 175.789062 45.347656 181.910156 43.851562 188.195312 42.992188 C 189.09375 42.867188 189.996094 42.757812 190.898438 42.660156 C 191.753906 42.566406 192.621094 42.667969 193.304688 41.976562 C 193.613281 41.664062 194.335938 41.539062 194.082031 41.003906 C 193.949219 40.722656 193.246094 40.542969 192.832031 40.585938 C 187.707031 41.121094 182.613281 41.886719 177.722656 43.539062 C 168.761719 46.574219 160.261719 50.621094 152.480469 56.015625 C 145.535156 60.832031 139.535156 66.730469 134.074219 73.15625 C 128.167969 80.105469 122.65625 87.371094 118.074219 95.257812 C 114.769531 100.9375 112.199219 106.964844 110.546875 113.402344 C 107.425781 125.59375 105.558594 137.921875 105.851562 150.511719 C 105.953125 154.761719 105.890625 159.101562 107.757812 163.109375 Z M 257.335938 63.828125 C 255.671875 64.222656 254.554688 64.929688 254.21875 66.648438 C 255.425781 69.335938 256.597656 72.042969 257.851562 74.710938 C 260.273438 79.863281 263.222656 84.765625 265.164062 90.140625 C 266.328125 93.367188 268.066406 96.332031 269.382812 99.464844 C 270.828125 102.90625 271.515625 106.667969 272.542969 110.285156 C 272.617188 110.539062 272.675781 110.800781 272.738281 111.0625 C 272.925781 111.84375 273.144531 112.617188 273.835938 113.171875 C 274.8125 113.136719 275.171875 112.585938 275.367188 111.945312 C 275.40625 111.816406 275.441406 111.683594 275.46875 111.550781 C 275.53125 111.289062 275.582031 111.023438 275.652344 110.78125 C 276.664062 107.269531 277.523438 103.710938 278.507812 100.1875 C 281.730469 88.636719 283.695312 76.910156 283.75 64.882812 C 283.761719 63.125 283.28125 62.441406 281.503906 62.15625 C 273.300781 60.824219 265.308594 61.945312 257.335938 63.828125 Z M 223 263.640625 C 225.175781 261.402344 227.320312 259.125 229.457031 256.851562 C 233.378906 252.675781 237.871094 249.132812 242.316406 245.648438 C 247.414062 241.65625 252.828125 237.957031 258.726562 235.101562 C 265.929688 231.617188 273.21875 228.425781 281.035156 226.445312 C 283.371094 225.855469 285.757812 225.644531 288.046875 224.949219 C 288.777344 224.726562 289.722656 224.828125 290.046875 223.847656 C 289.488281 223.410156 288.929688 222.96875 288.300781 222.664062 C 287.925781 222.476562 287.527344 222.339844 287.089844 222.28125 C 286.042969 222.132812 285.464844 221.703125 285.800781 220.566406 C 286.132812 219.457031 286.945312 219.039062 287.996094 219.335938 C 288.871094 219.582031 289.707031 220 290.507812 220.4375 C 290.933594 220.667969 290.984375 220.664062 291.34375 220.25 C 293.222656 218.085938 295.265625 216.054688 297.117188 213.867188 C 297.578125 213.324219 298.375 212.703125 298.097656 211.535156 C 294.863281 213.914062 291.277344 215.136719 287.535156 215.867188 C 285.53125 216.257812 283.714844 216.851562 282.128906 218.207031 C 281.355469 218.867188 280.542969 218.976562 279.28125 218.574219 C 276.25 217.609375 272.96875 216.902344 269.984375 218.890625 C 267.167969 220.761719 263.855469 220.691406 260.746094 221.386719 C 259.265625 221.71875 257.492188 221.472656 256.265625 220.632812 C 254.964844 219.734375 254.042969 219.722656 252.574219 220.15625 C 247.621094 221.617188 242.605469 222.828125 237.738281 224.628906 C 225.53125 229.140625 214.441406 235.59375 204.816406 244.246094 C 193.503906 254.417969 184.515625 266.320312 179.640625 281.042969 C 175.332031 294.058594 174.675781 306.96875 179.503906 319.960938 C 182.519531 328.070312 187.75 334.40625 194.847656 339.269531 C 194.769531 332.730469 195.660156 326.277344 196.566406 319.828125 C 196.636719 319.671875 196.691406 319.515625 196.71875 319.363281 C 196.722656 319.335938 196.734375 319.308594 196.738281 319.28125 C 196.746094 319.191406 196.742188 319.101562 196.714844 319.011719 C 196.6875 318.917969 196.640625 318.828125 196.570312 318.738281 C 196.578125 318.289062 196.589844 317.839844 196.597656 317.394531 C 196.6875 317.082031 196.824219 316.773438 196.855469 316.457031 C 198.054688 303.8125 202.765625 292.453125 209.414062 281.773438 C 212.65625 276.566406 216.464844 271.8125 220.460938 267.1875 C 220.773438 265.621094 221.964844 264.707031 223 263.640625 Z M 190.296875 257.691406 C 188.929688 256.941406 189.628906 255.679688 189.84375 254.816406 C 190.558594 251.953125 191.523438 249.152344 192.421875 246.339844 C 192.5625 245.898438 192.789062 245.441406 193.097656 245.101562 C 196.621094 241.230469 200.101562 237.339844 204.53125 234.402344 C 207.855469 232.199219 210.839844 229.519531 214.105469 227.207031 C 219.109375 223.667969 224.550781 220.9375 229.945312 218.117188 C 234.386719 215.800781 238.71875 213.1875 243.660156 211.96875 C 245.878906 211.421875 248.101562 210.898438 250.324219 210.363281 C 249.738281 209.371094 249.21875 208.359375 248.824219 207.324219 C 248.726562 207.066406 248.636719 206.808594 248.554688 206.550781 C 248.382812 205.988281 248.25 205.414062 248.175781 204.828125 C 248.023438 203.65625 248.085938 202.4375 248.449219 201.144531 C 247.628906 201.222656 247.035156 201.496094 246.363281 201.558594 C 238.851562 202.253906 231.589844 204.050781 224.632812 206.949219 C 215.9375 210.570312 208.140625 215.601562 201.105469 221.898438 C 190.144531 231.710938 182.152344 243.578125 176.757812 257.160156 C 172.746094 267.265625 170.585938 277.8125 170.855469 288.761719 C 171.007812 294.972656 171.449219 301.148438 173.425781 307.105469 C 173.597656 307.113281 173.773438 307.125 173.949219 307.132812 C 173.996094 306.804688 174.097656 306.46875 174.078125 306.140625 C 173.53125 296.359375 175.417969 287.015625 178.972656 277.9375 C 181.820312 270.660156 185.828125 264.050781 190.296875 257.691406 Z M 127.324219 71.386719 C 128.972656 69.464844 130.53125 67.457031 132.21875 65.578125 C 132.785156 64.949219 133.359375 64.339844 133.960938 63.75 C 135.90625 61.832031 136.511719 59.804688 136.769531 57.101562 C 137.703125 47.308594 141.136719 38.164062 144.925781 29.160156 C 145.441406 27.925781 146.539062 27.695312 147.773438 27.738281 C 149.617188 27.800781 151.023438 28.816406 152.519531 29.695312 C 157.316406 32.523438 162.273438 35.128906 165.871094 39.574219 C 166.320312 40.132812 166.746094 39.847656 167.285156 39.628906 C 171.292969 37.996094 175.40625 36.671875 179.585938 35.578125 C 181.785156 35.007812 184.035156 34.644531 186.578125 34.121094 C 184.832031 32.824219 183.183594 31.960938 182.011719 30.660156 C 176.917969 25.007812 171.074219 20.171875 165.351562 15.210938 C 163.28125 13.414062 161.355469 11.351562 158.757812 10.222656 C 157.683594 11.421875 156.445312 11.667969 154.851562 11.265625 C 150.214844 10.097656 145.824219 13.171875 144.074219 16.445312 C 142.070312 20.203125 140.703125 24.15625 139.273438 28.132812 C 137.535156 32.972656 135.511719 37.714844 133.429688 42.417969 C 133.007812 43.371094 132.351562 44.957031 130.578125 44.117188 C 129.652344 47.140625 128.960938 50.214844 128.378906 53.308594 C 128.234375 54.078125 128.09375 54.84375 127.960938 55.617188 C 127.742188 56.90625 127.535156 58.203125 127.335938 59.496094 C 127.054688 61.328125 126.742188 63.164062 126.601562 65.011719 C 126.566406 65.476562 126.542969 65.9375 126.53125 66.398438 C 126.519531 66.863281 126.523438 67.328125 126.542969 67.789062 C 126.558594 68.253906 126.59375 68.71875 126.652344 69.183594 C 126.707031 69.648438 126.78125 70.117188 126.878906 70.582031 C 127.027344 70.851562 127.175781 71.117188 127.324219 71.386719 Z M 94.082031 283.992188 C 88.347656 278.328125 84.042969 271.453125 80.742188 264.152344 C 76.632812 255.054688 74.613281 245.363281 74.140625 235.34375 C 73.875 229.714844 75.496094 224.347656 75.910156 218.820312 C 76.15625 215.558594 76.703125 212.3125 77.808594 209.214844 C 79.550781 204.332031 82.078125 199.746094 83.289062 194.660156 C 83.515625 193.699219 84.074219 192.820312 84.382812 191.871094 C 84.609375 191.164062 85.285156 190.53125 84.945312 189.710938 C 84.4375 189.570312 84.292969 189.929688 84.046875 190.144531 C 79.96875 193.71875 77.105469 198.25 74.605469 202.921875 C 70.296875 210.96875 68.152344 219.738281 67.238281 228.78125 C 66.382812 237.214844 66.957031 245.644531 69.101562 253.800781 C 72.414062 266.410156 78.171875 277.6875 88.183594 286.570312 C 95.191406 292.792969 102.992188 297.105469 112.421875 298.980469 C 111.953125 298.554688 111.707031 298.226562 111.382812 298.050781 C 104.714844 294.476562 99.367188 289.210938 94.082031 283.992188 Z M 154.820312 55.933594 C 153.160156 57.023438 151.550781 58.195312 149.980469 59.421875 C 144.152344 63.976562 139.058594 69.277344 134.292969 74.914062 C 128.816406 81.390625 123.753906 88.113281 120.242188 95.914062 C 115.9375 105.472656 113.144531 115.496094 110.667969 125.644531 C 109.992188 128.414062 109.550781 131.21875 108.246094 133.917969 C 107.132812 136.226562 107.523438 139.195312 107.4375 141.894531 C 107.292969 146.527344 107.265625 146.46875 111.964844 146.890625 C 113.28125 147.011719 113.765625 146.730469 113.878906 145.378906 C 114.953125 132.890625 117.679688 120.734375 121.539062 108.832031 C 124.546875 99.550781 128.507812 90.671875 133.527344 82.300781 C 137.746094 75.265625 142.714844 68.8125 148.609375 63.042969 C 152.347656 59.386719 156.5 56.328125 160.761719 53.363281 C 160.503906 53.226562 160.242188 53.085938 159.984375 52.945312 C 158.199219 53.839844 156.480469 54.847656 154.820312 55.933594 Z M 112.449219 347.03125 C 111.652344 345.011719 109.972656 344.28125 107.929688 345.023438 C 105.425781 345.933594 102.945312 346.921875 100.457031 347.875 C 100.265625 347.96875 100.078125 348.058594 99.886719 348.152344 C 99.886719 348.152344 99.792969 348.113281 99.792969 348.113281 L 99.734375 348.195312 C 97.964844 351.507812 94.773438 352.871094 91.5625 354.277344 C 86.027344 356.699219 80.164062 358.089844 74.425781 359.882812 C 76.542969 361.90625 77.15625 364.085938 76.589844 366.394531 C 76.328125 367.445312 75.828125 368.523438 75.105469 369.625 C 76.226562 369.539062 76.964844 369.273438 77.734375 369.023438 C 85.65625 366.441406 93.238281 362.945312 101.121094 360.25 C 105.265625 358.832031 109.453125 357.539062 113.632812 356.21875 C 114.324219 356 115.039062 355.792969 114.671875 354.910156 C 113.625 352.363281 113.453125 349.578125 112.449219 347.03125 Z M 141.464844 142.34375 C 141.175781 142.617188 140.945312 142.980469 140.46875 142.941406 C 137.761719 142.726562 135.339844 143.84375 132.835938 144.582031 C 127.3125 146.210938 121.898438 148.320312 116.070312 148.632812 C 115.035156 148.6875 114.847656 149.109375 114.757812 149.949219 C 114.378906 153.390625 114.300781 156.84375 114.234375 160.304688 C 114.207031 161.625 114.140625 162.210938 115.917969 161.710938 C 122.78125 159.78125 129.691406 157.996094 136.691406 156.574219 C 139.289062 156.046875 141.675781 154.832031 143.886719 153.335938 C 145.242188 152.417969 146.09375 151.074219 146.148438 149.511719 C 146.175781 148.820312 146.191406 148.128906 146.199219 147.433594 C 146.21875 145.359375 146.144531 143.277344 145.878906 141.210938 C 144.414062 141.613281 143.003906 142.230469 141.464844 142.34375 Z M 299.171875 109.886719 L 299.289062 109.867188 C 299.273438 109.472656 299.960938 109.152344 299.425781 108.695312 C 298.367188 108.640625 298.410156 107.804688 298.625 107.226562 C 298.835938 106.667969 299.03125 107.453125 299.296875 107.449219 C 299.410156 107.25 299.386719 107.007812 299.3125 106.757812 C 299.296875 106.695312 299.273438 106.632812 299.25 106.570312 C 299.242188 106.542969 299.230469 106.515625 299.21875 106.488281 C 299.199219 106.433594 299.175781 106.375 299.152344 106.320312 C 299.085938 106.148438 299.015625 105.984375 298.972656 105.828125 C 298.941406 105.714844 298.925781 105.605469 298.933594 105.507812 C 298.9375 105.460938 298.949219 105.410156 298.964844 105.367188 C 299 105.28125 299.066406 105.203125 299.175781 105.144531 C 299.285156 105.085938 299.433594 105.039062 299.636719 105.015625 C 300.855469 104.859375 300.832031 104.289062 301.0625 103.558594 C 304.585938 92.335938 307.191406 80.910156 308.1875 69.175781 C 308.519531 65.265625 308.238281 61.304688 308.238281 56.914062 C 302.972656 83.144531 296.273438 108.503906 281.703125 131.035156 C 286.585938 127.050781 290.507812 122.414062 293.546875 117.058594 C 294.894531 114.683594 296.238281 112.304688 297.582031 109.921875 C 297.699219 109.714844 297.816406 109.53125 297.933594 109.398438 C 298.292969 108.988281 298.65625 108.984375 299.054688 109.878906 C 299.054688 109.878906 299.171875 109.886719 299.171875 109.886719 Z M 109.894531 163.074219 C 110.980469 162.808594 112.6875 163.472656 112.828125 161.597656 C 113.070312 158.371094 113.125 155.128906 113.269531 151.894531 C 113.40625 148.761719 113.410156 148.761719 109.78125 148.640625 C 109.496094 148.617188 108.824219 148.554688 108.152344 148.511719 C 107.632812 148.480469 107.214844 148.542969 107.273438 149.257812 C 107.523438 152.429688 107.707031 155.605469 108.015625 158.769531 C 108.121094 159.828125 109.105469 160.675781 109.054688 161.792969 C 109.019531 162.515625 108.496094 163.414062 109.894531 163.074219 Z M 123.375 162.625 C 123.527344 163.382812 123.789062 163.472656 124.421875 163.273438 C 125.371094 162.972656 126.316406 162.625 127.292969 162.453125 C 128.675781 162.210938 129.335938 161.480469 129.289062 159.96875 C 127.449219 160.398438 125.640625 160.816406 123.835938 161.253906 C 122.953125 161.464844 123.246094 161.976562 123.375 162.625 Z M 123.375 162.625 " fill-opacity="1" fill-rule="nonzero"/><path fill="#dc94ee" d="M 298.496094 255.460938 C 301.992188 262.527344 302.550781 269.957031 301.554688 277.574219 C 299.558594 292.820312 292.246094 305.59375 282.570312 317.144531 C 274.34375 326.964844 264.589844 334.960938 253.246094 341.042969 C 246.941406 344.421875 240.328125 346.839844 233.367188 348.214844 C 229.316406 349.015625 225.167969 348.785156 221.015625 348.71875 C 213.195312 348.589844 208.691406 343.566406 204.84375 338.09375 C 201.117188 332.789062 199.621094 326.4375 199.632812 321.394531 C 199.375 309.65625 202.144531 300.125 206.472656 291.039062 C 211.191406 281.148438 217.617188 272.398438 225.457031 264.761719 C 232.042969 258.347656 239.316406 252.863281 247.632812 248.742188 C 256.148438 244.523438 264.992188 241.789062 274.523438 241.839844 C 281.882812 241.882812 288.769531 243.777344 294.726562 248.347656 C 294.984375 248.546875 295.453125 248.820312 295.425781 248.992188 C 294.957031 251.859375 297.445312 253.335938 298.496094 255.460938 Z M 281.9375 152.214844 C 281.992188 156.761719 282.121094 161.300781 282.269531 165.84375 C 282.460938 171.527344 282.539062 177.210938 282.714844 182.890625 C 282.761719 184.433594 283.316406 185.941406 283.050781 187.511719 C 282.726562 189.410156 283.277344 190.207031 285.171875 190.386719 C 288.945312 190.738281 292.710938 191.050781 296.523438 190.808594 C 300.671875 190.546875 304.878906 191.175781 308.96875 189.984375 C 309.09375 187.289062 309.292969 184.59375 309.324219 181.894531 C 309.492188 168.320312 309.835938 154.769531 307.273438 141.285156 C 305.78125 133.414062 304.382812 125.539062 302.34375 117.785156 C 301.625 115.039062 300.96875 112.253906 299.289062 109.867188 L 299.171875 109.886719 C 299.171875 109.886719 299.054688 109.878906 299.054688 109.878906 C 298.414062 110.734375 298.246094 111.789062 297.917969 112.765625 C 297.808594 113.09375 297.679688 113.410156 297.511719 113.710938 C 294.109375 119.742188 290.332031 125.53125 285.910156 130.867188 C 285.558594 131.292969 285.191406 131.710938 284.808594 132.109375 C 284.359375 132.578125 283.875 133.015625 283.363281 133.410156 C 283.074219 133.632812 282.777344 133.835938 282.464844 134.027344 C 281.898438 134.367188 281.296875 134.65625 280.636719 134.855469 C 281.101562 140.644531 281.867188 146.425781 281.9375 152.214844 Z M 305.394531 268.523438 C 306.0625 265.050781 306.199219 261.546875 305.988281 258.0625 C 305.917969 256.902344 305.8125 255.742188 305.671875 254.585938 C 304.757812 247.078125 302.382812 239.945312 299.25 233.0625 C 299.011719 232.53125 298.75 232.019531 298.472656 231.527344 C 297.664062 230.09375 296.699219 228.824219 295.585938 227.699219 C 295.554688 227.667969 295.527344 227.632812 295.496094 227.601562 C 293.957031 226.074219 292.136719 224.828125 290.046875 223.847656 C 289.722656 224.828125 288.777344 224.726562 288.046875 224.949219 C 285.757812 225.640625 283.371094 225.855469 281.035156 226.445312 C 273.21875 228.425781 265.929688 231.613281 258.726562 235.101562 C 252.832031 237.957031 247.414062 241.652344 242.316406 245.648438 C 237.871094 249.132812 233.382812 252.675781 229.457031 256.851562 C 227.320312 259.121094 225.175781 261.398438 223 263.640625 C 221.964844 264.707031 220.773438 265.617188 220.460938 267.183594 C 221.777344 266.242188 222.632812 264.851562 223.78125 263.753906 C 234.160156 253.824219 245.703125 245.765625 259.628906 241.554688 C 267.25 239.25 275.019531 238.128906 282.886719 239.660156 C 291.269531 241.289062 298.347656 245.15625 303.039062 252.703125 C 303.804688 253.933594 303.871094 254.554688 302.75 255.300781 C 301.949219 255.832031 302.058594 256.589844 302.328125 257.273438 C 303.808594 261.003906 304.398438 264.914062 304.730469 268.875 C 304.953125 268.757812 305.175781 268.640625 305.394531 268.523438 Z M 218.933594 36.226562 C 223.320312 36.902344 226.992188 39.277344 231.003906 40.816406 C 233.9375 41.941406 236.03125 44.28125 238.433594 46.207031 C 240.621094 47.960938 242.640625 49.652344 243.6875 52.308594 C 244.035156 53.1875 244.492188 53.648438 245.152344 52.492188 C 245.441406 51.984375 245.585938 51.027344 246.523438 51.847656 C 248.113281 50.164062 250.441406 49.828125 252.488281 48.726562 C 248.359375 46.226562 244.1875 44.175781 240.101562 41.964844 C 235.144531 39.285156 229.894531 37.699219 224.53125 36.527344 C 221.3125 35.824219 218.050781 35.269531 214.78125 34.722656 C 215.753906 36.308594 217.574219 36.015625 218.933594 36.226562 Z M 194.847656 339.269531 C 197.90625 341.738281 201.378906 343.480469 204.933594 345.117188 C 201.242188 340.621094 198.925781 335.558594 197.621094 329.957031 C 197.328125 328.703125 197.167969 327.4375 197.054688 326.167969 C 196.871094 324.054688 196.832031 321.933594 196.566406 319.828125 C 195.65625 326.277344 194.765625 332.730469 194.847656 339.269531 Z M 299.296875 107.449219 C 299.03125 107.453125 298.835938 106.667969 298.625 107.226562 C 298.410156 107.804688 298.367188 108.640625 299.425781 108.695312 C 299.421875 108.644531 299.429688 108.589844 299.4375 108.539062 C 299.476562 108.324219 299.582031 108.105469 299.574219 107.894531 C 299.574219 107.863281 299.566406 107.832031 299.558594 107.804688 C 299.554688 107.78125 299.554688 107.761719 299.546875 107.742188 C 299.511719 107.640625 299.433594 107.542969 299.296875 107.449219 Z M 196.566406 318.738281 C 196.640625 318.625 196.703125 318.515625 196.75 318.40625 C 196.777344 318.335938 196.796875 318.269531 196.8125 318.203125 C 196.871094 317.9375 196.820312 317.667969 196.597656 317.394531 C 196.589844 317.839844 196.578125 318.289062 196.566406 318.738281 Z M 196.566406 318.738281 " fill-opacity="1" fill-rule="nonzero"/><path fill="#9fa7a7" d="M 143.761719 277.894531 C 143.707031 276.070312 142.9375 275.457031 141.230469 275.390625 C 139.757812 275.335938 140.039062 276.769531 139.335938 277.378906 C 138.578125 278.027344 138.109375 279.085938 136.902344 278.769531 C 135.820312 278.484375 135.925781 277.441406 135.804688 276.59375 C 135.699219 275.871094 135.476562 275.128906 135.554688 274.421875 C 135.753906 272.660156 134.820312 271.65625 133.589844 270.578125 C 128.558594 266.160156 123.65625 261.605469 120.65625 255.4375 C 120.171875 254.445312 119.691406 254.636719 119.328125 255.519531 C 118.910156 256.542969 118.21875 257.382812 117.445312 258.109375 C 117.007812 258.515625 116.21875 259.066406 115.691406 258.347656 C 115.210938 257.699219 115.246094 256.796875 115.863281 256.132812 C 116.121094 255.855469 116.644531 255.816406 116.886719 255.53125 C 117.890625 254.34375 119.664062 253.140625 118.695312 251.445312 C 116.238281 247.148438 115.425781 242.347656 114.078125 237.636719 C 112.636719 239.085938 112.640625 239.078125 110.601562 238.417969 C 109.648438 238.109375 108.707031 237.71875 107.730469 237.546875 C 105.019531 237.070312 102.332031 236.011719 99.242188 236.910156 C 101.808594 239.34375 104.949219 239.746094 107.832031 240.722656 C 108.316406 240.890625 109.230469 240.632812 109.253906 241.082031 C 109.289062 241.746094 108.917969 242.515625 108.519531 243.105469 C 108.082031 243.753906 107.285156 243.511719 106.636719 243.40625 C 104.3125 243.023438 102.082031 242.269531 99.957031 241.28125 C 97.542969 240.15625 96.796875 238.824219 97.164062 236.847656 C 97.628906 234.34375 99.238281 233.335938 102.609375 233.378906 C 106.472656 233.429688 110.097656 234.574219 113.898438 235.8125 C 112.191406 225.621094 112.714844 215.855469 116.605469 206.417969 C 117.953125 203.140625 120.046875 200.058594 119.148438 196.210938 C 119.0625 195.84375 119.246094 195.414062 119.308594 195.015625 C 119.445312 194.125 119.984375 193.285156 120.828125 193.472656 C 121.835938 193.695312 120.835938 194.527344 120.917969 195.09375 C 121 195.667969 120.652344 196.46875 121.234375 196.761719 C 122.027344 197.167969 122.160156 196.15625 122.496094 195.769531 C 124.605469 193.359375 127.074219 191.382812 130.109375 190.453125 C 132.554688 189.703125 135.015625 189.019531 137.386719 188.074219 C 138.527344 187.617188 139.507812 187.078125 139.972656 185.613281 C 140.574219 183.726562 141.742188 182.019531 142.644531 180.226562 C 142.917969 179.675781 143.324219 179.433594 143.921875 179.414062 C 144.695312 179.386719 144.730469 179.972656 144.859375 180.492188 C 145.320312 182.3125 145.125 184.167969 144.414062 185.800781 C 143.628906 187.597656 144.25 188.070312 145.875 188.199219 C 147.230469 188.304688 148.886719 188.285156 149.683594 189.332031 C 151.746094 192.046875 154.652344 192.398438 157.628906 192.765625 C 158.171875 192.832031 158.691406 192.824219 159.050781 193.355469 C 159.96875 194.714844 160.519531 193.9375 161.042969 192.996094 C 162.476562 190.425781 163.90625 187.851562 165.367188 185.300781 C 165.664062 184.78125 165.667969 183.679688 166.601562 184.070312 C 167.617188 184.492188 166.964844 185.378906 166.664062 185.972656 C 165.515625 188.230469 164.300781 190.460938 163.085938 192.6875 C 162.613281 193.558594 161.621094 194.421875 161.675781 195.238281 C 161.738281 196.171875 163.25 196.167969 164.003906 196.773438 C 164.671875 197.316406 165.355469 197.835938 166.023438 198.382812 C 166.671875 198.910156 167.132812 198.816406 167.679688 198.144531 C 170.457031 194.75 172.804688 191.128906 174.019531 186.859375 C 174.292969 185.898438 174.617188 184.941406 175.027344 184.03125 C 175.308594 183.398438 175.902344 182.777344 176.617188 183.113281 C 177.273438 183.425781 176.855469 184.082031 176.671875 184.667969 C 175.085938 189.710938 173.113281 194.542969 169.835938 198.785156 C 169.042969 199.8125 168.957031 201.140625 169.453125 202.609375 C 170.410156 205.453125 172.742188 207.65625 173.09375 210.738281 C 173.328125 212.785156 174.035156 212.453125 175.273438 211.335938 C 178.761719 208.183594 182.53125 205.378906 186.371094 202.675781 C 187.359375 201.980469 188.75 201.589844 189.335938 200.667969 C 190.152344 199.386719 188.417969 198.542969 188.015625 197.386719 C 187.097656 194.746094 186.074219 192.101562 184.71875 189.667969 C 182.371094 185.445312 179.433594 181.601562 175.980469 178.203125 C 171.070312 173.367188 166.050781 168.667969 159.746094 165.589844 C 157.171875 164.335938 154.265625 164.175781 151.730469 163.078125 C 149.597656 162.152344 147.445312 161.644531 145.339844 161.917969 C 142.21875 162.324219 139.101562 162.664062 135.96875 162.957031 C 133.972656 163.144531 131.992188 163.613281 130.042969 164.109375 C 124.125 165.609375 118.335938 167.441406 113.207031 170.925781 C 112.101562 171.675781 110.679688 171.195312 110.023438 170.46875 C 109.09375 169.4375 109.242188 169.179688 108.222656 169.929688 C 107.039062 170.796875 105.890625 171.71875 104.726562 172.613281 C 98.378906 177.496094 93.382812 183.542969 89.519531 190.523438 C 87.425781 194.304688 84.445312 197.558594 82.921875 201.667969 C 81.699219 204.972656 80.507812 208.289062 79.328125 211.609375 C 78.546875 213.816406 77.652344 216.003906 77.421875 218.355469 C 76 232.976562 77.4375 247.214844 82.839844 260.992188 C 86.136719 269.398438 91 276.785156 97.042969 283.363281 C 104.726562 291.726562 113.867188 298.023438 124.863281 301.265625 C 129.230469 302.554688 133.621094 303.851562 138.3125 303.578125 C 141.566406 303.390625 144.785156 302.914062 148.027344 302.722656 C 149.542969 302.636719 149.546875 301.917969 149.070312 300.808594 C 145.929688 293.488281 144.003906 285.871094 143.761719 277.894531 Z M 91.445312 204.351562 C 90.859375 203.183594 90.628906 202.449219 90.949219 201.613281 C 94.449219 192.492188 99.0625 184.035156 105.75 176.824219 C 106.417969 176.097656 107.289062 175.5625 108.039062 174.910156 C 108.375 174.613281 108.742188 174.433594 109.136719 174.613281 C 109.632812 174.839844 109.375 175.335938 109.328125 175.679688 C 109.242188 176.332031 109.210938 177.027344 108.5625 177.46875 C 104.507812 180.222656 102.019531 184.316406 99.460938 188.300781 C 96.285156 193.242188 93.605469 198.464844 91.445312 204.351562 Z M 145.878906 141.210938 C 144.414062 141.613281 143.003906 142.230469 141.464844 142.34375 C 142.125 140.9375 141.785156 140.488281 140.234375 140.941406 C 134.75 142.539062 129.242188 144.0625 123.765625 145.683594 C 121.425781 146.375 119.019531 146.53125 116.628906 146.851562 C 115.289062 147.03125 115.046875 146.558594 115.183594 145.285156 C 116.117188 136.4375 117.773438 127.726562 120.066406 119.140625 C 122.011719 111.851562 124.410156 104.707031 127.511719 97.816406 C 132.777344 86.109375 139.347656 75.199219 148.488281 66.117188 C 157.003906 57.660156 166.871094 51.324219 179.027344 49.414062 C 189.488281 47.765625 199.28125 49.816406 208.414062 55.113281 C 208.652344 55.253906 209.222656 55.171875 208.921875 55.886719 C 208.617188 56.601562 208.21875 56.902344 207.503906 57.03125 C 204.71875 57.539062 201.988281 58.265625 199.347656 59.265625 C 190.703125 62.539062 183.320312 67.757812 176.675781 74.089844 C 175.621094 75.097656 174.515625 75.894531 173.152344 76.496094 C 169.683594 78.027344 168.464844 81.648438 166.429688 84.425781 C 160.207031 92.910156 155.085938 102.074219 151.113281 111.824219 C 149.914062 114.765625 148.945312 117.746094 148.175781 120.765625 C 147.367188 123.957031 146.789062 127.191406 146.410156 130.464844 C 146.3125 131.316406 146.230469 132.167969 146.160156 133.027344 C 146.078125 134.015625 146.011719 135.007812 145.96875 136.003906 C 145.886719 137.730469 145.855469 139.46875 145.878906 141.210938 Z M 152.160156 292.640625 C 152.332031 293.789062 152.363281 294.785156 153.953125 294.113281 C 154.28125 293.976562 154.90625 293.773438 154.894531 294.394531 C 154.859375 296.367188 156.558594 296.300781 157.664062 296.664062 C 159.730469 297.339844 161.925781 297.308594 164.085938 297.09375 C 166.039062 296.902344 167.296875 295.695312 168.136719 293.851562 C 168.285156 294.171875 168.371094 294.273438 168.378906 294.382812 C 168.863281 301.679688 168.539062 300.703125 162.222656 299.898438 C 160.757812 299.710938 159.261719 299.746094 157.78125 299.675781 C 157.191406 299.644531 156.550781 299.734375 156.011719 299.539062 C 153.464844 298.632812 153.171875 298.835938 153.445312 301.597656 C 153.46875 301.84375 153.679688 302.066406 153.324219 302.363281 C 152.136719 301.0625 151.648438 299.390625 150.960938 297.851562 C 150.253906 296.269531 149.6875 294.617188 149.09375 292.984375 C 147.402344 288.296875 146.378906 283.449219 145.800781 278.511719 C 145.675781 277.425781 145.371094 276.335938 146.617188 275.429688 C 147.347656 274.894531 147.179688 273.578125 147.015625 272.742188 C 146.410156 269.625 147.484375 266.773438 148.296875 263.929688 C 151.371094 253.160156 155.40625 242.765625 160.824219 232.925781 C 166.695312 222.261719 174.292969 213.175781 184.429688 206.296875 C 188.769531 203.351562 193.195312 200.617188 198.234375 199.023438 C 199.480469 198.628906 200.296875 197.796875 200.738281 196.574219 C 201.273438 196.246094 201.8125 196.050781 202.386719 196.488281 C 202.4375 197.289062 200.84375 197.769531 201.714844 198.5 C 202.191406 198.898438 203.042969 197.949219 203.65625 197.480469 C 208.117188 194.082031 213.488281 192.792969 218.71875 191.390625 C 227.214844 189.113281 235.902344 188.121094 244.714844 189.238281 C 246.171875 189.421875 247.613281 189.75 249.039062 190.09375 C 249.820312 190.28125 250.21875 190.644531 249.957031 191.6875 C 249.441406 193.765625 249.128906 195.902344 248.863281 198.03125 C 248.734375 199.058594 248.320312 199.3125 247.328125 199.398438 C 236.050781 200.375 225.535156 203.78125 215.753906 209.464844 C 203.621094 216.507812 193.65625 225.863281 185.632812 237.371094 C 180.058594 245.363281 176.171875 254.097656 172.628906 263.136719 C 169.597656 270.863281 167.90625 278.734375 167.234375 286.914062 C 167.140625 288.074219 166.621094 288.214844 165.542969 288.113281 C 161.753906 287.75 158.039062 288.214844 154.480469 289.597656 C 153.148438 290.117188 151.882812 290.75 152.160156 292.640625 Z M 165.054688 221.207031 C 165.164062 221.574219 165.003906 221.933594 164.753906 222.316406 C 157.140625 233.898438 151.683594 246.472656 147.664062 259.695312 C 146.832031 262.429688 145.945312 265.171875 145.589844 268.03125 C 145.230469 270.9375 144.78125 271.386719 141.75 271.136719 C 141.234375 271.09375 140.734375 271.167969 140.46875 271.355469 C 138.652344 272.652344 137.863281 271.117188 137.101562 270.066406 C 136.671875 269.46875 136.511719 268.976562 135.65625 269.234375 C 135.296875 269.339844 134.9375 269.136719 134.585938 268.835938 C 129.445312 264.402344 124.453125 259.75 121.335938 253.664062 C 119.203125 249.496094 117.011719 245.257812 116.144531 240.515625 C 115.285156 235.832031 114.28125 231.171875 114.289062 226.375 C 114.136719 220.546875 115.691406 215.050781 118.460938 210.042969 C 120.152344 206.984375 123.617188 206.019531 126.976562 205.488281 C 132.628906 204.59375 138.160156 205.59375 143.648438 206.769531 C 149.179688 207.953125 154.378906 210.078125 159.433594 212.601562 C 163.015625 214.394531 164.015625 217.800781 165.054688 221.207031 Z M 179.042969 329.28125 C 181.269531 332.738281 181.144531 332.808594 177.488281 334.785156 C 168.179688 339.820312 158.160156 343.015625 148.070312 345.972656 C 138.359375 348.820312 128.476562 351.042969 118.355469 354.195312 C 120.089844 350.714844 118.84375 348.109375 116.617188 345.515625 C 121.699219 344.703125 126.453125 343.414062 131.242188 342.300781 C 138.449219 340.621094 145.417969 338.15625 152.566406 336.320312 C 160.171875 334.363281 167.265625 331.125 174.367188 327.90625 C 175.449219 327.414062 176.414062 326.167969 177.523438 326.300781 C 178.925781 326.46875 178.394531 328.273438 179.042969 329.28125 Z M 116.238281 102.074219 C 113.871094 109.492188 111.503906 116.914062 109.570312 124.453125 C 110.957031 116.734375 112.164062 108.972656 116.238281 102.074219 Z M 160.785156 309.632812 C 159.992188 310.1875 159.773438 310.808594 159.929688 312.238281 C 158.042969 310.011719 156.691406 308.246094 155.363281 306.074219 C 157.300781 306.511719 159.035156 306.722656 160.613281 307.332031 C 161.730469 307.761719 161.757812 308.949219 160.785156 309.632812 Z M 170.835938 48.566406 C 170.46875 48.847656 170.070312 49.066406 169.65625 49.25 C 169.070312 49.515625 168.449219 49.707031 167.835938 49.910156 C 167.207031 50.121094 166.585938 50.34375 166.007812 50.667969 C 164.292969 51.628906 162.511719 52.472656 160.761719 53.363281 C 160.503906 53.226562 160.242188 53.085938 159.980469 52.945312 C 161.980469 51.800781 164.015625 50.730469 166.105469 49.773438 C 167.386719 49.1875 168.683594 48.632812 170.019531 48.160156 C 170.140625 48.429688 170.371094 48.480469 170.605469 48.519531 C 170.683594 48.535156 170.761719 48.546875 170.835938 48.566406 Z M 255.441406 212.78125 C 252.484375 211.355469 249.644531 207.054688 249.832031 203.917969 C 251.074219 207.484375 253.246094 210.074219 255.628906 212.515625 C 255.5625 212.601562 255.5 212.691406 255.441406 212.78125 Z M 282.851562 214.648438 C 282.148438 216.84375 281.128906 217.050781 277.457031 215.800781 C 279.152344 215.28125 281.136719 216.507812 282.851562 214.648438 Z M 303.011719 71.726562 C 303.015625 72.925781 302.757812 74.058594 302.382812 75.167969 C 302.15625 75.835938 301.886719 76.492188 301.605469 77.144531 C 301.882812 75.289062 302.261719 73.460938 303.011719 71.726562 Z M 303.023438 71.695312 C 303.019531 71.703125 303.019531 71.714844 303.011719 71.726562 C 303.011719 71.71875 303.015625 71.710938 303.015625 71.703125 Z M 303.507812 70.8125 C 303.628906 69.394531 303.714844 67.945312 304.539062 66.574219 C 304.789062 68.203125 304.164062 69.507812 303.507812 70.8125 Z M 173.949219 307.132812 C 174.261719 307.957031 174.382812 308.804688 174.386719 309.664062 C 174.386719 309.953125 174.375 310.242188 174.351562 310.53125 C 174.246094 309.332031 173.128906 308.40625 173.425781 307.105469 C 173.601562 307.113281 173.777344 307.125 173.949219 307.132812 Z M 126.308594 72.988281 C 126.101562 73.113281 125.855469 73.214844 125.558594 73.296875 C 126.050781 72.285156 126.464844 71.433594 126.878906 70.582031 C 127.027344 70.851562 127.175781 71.117188 127.324219 71.386719 C 127.203125 71.933594 127.011719 72.417969 126.589844 72.78125 C 126.507812 72.855469 126.414062 72.925781 126.308594 72.988281 Z M 305.394531 268.523438 C 305.441406 269.023438 305.433594 269.515625 305.367188 270.007812 C 305.324219 270.292969 305.269531 270.582031 305.175781 270.867188 C 305.09375 271.128906 304.988281 271.386719 304.855469 271.648438 C 304.484375 270.695312 304.617188 269.785156 304.730469 268.878906 C 304.953125 268.757812 305.175781 268.640625 305.394531 268.523438 Z M 255.441406 212.78125 C 255.5 212.691406 255.5625 212.601562 255.628906 212.515625 C 255.816406 212.773438 256.503906 212.675781 256.269531 213.109375 C 256.128906 213.375 255.585938 213.261719 255.441406 212.78125 Z M 303.078125 71.628906 L 303.023438 71.695312 C 303.023438 71.695312 303.015625 71.703125 303.015625 71.703125 C 303.015625 71.703125 303.078125 71.628906 303.078125 71.628906 Z M 303.078125 71.628906 " fill-opacity="1" fill-rule="nonzero"/><path fill="#fefefe" d="M 158.757812 10.222656 C 157.683594 11.421875 156.445312 11.664062 154.851562 11.261719 C 150.21875 10.097656 145.824219 13.171875 144.078125 16.445312 C 142.070312 20.203125 140.703125 24.15625 139.277344 28.132812 C 137.535156 32.972656 135.511719 37.714844 133.429688 42.417969 C 133.007812 43.371094 132.351562 44.957031 130.578125 44.117188 C 131.230469 39.902344 132.480469 35.824219 133.589844 31.726562 C 135.828125 23.480469 138.367188 15.328125 141.828125 7.488281 C 142.429688 6.121094 142.316406 4.5 143.035156 3.101562 C 143.46875 2.257812 143.640625 1.75 144.910156 2.03125 C 146.425781 2.371094 147.871094 2.726562 149.191406 3.535156 C 152.519531 5.566406 155.929688 7.480469 158.757812 10.222656 Z M 69.773438 357.585938 C 68.8125 358.234375 68.273438 358.902344 67.722656 358.910156 C 66.109375 358.933594 65.894531 359.800781 66.0625 361.070312 C 67.421875 360.929688 68.785156 360.789062 70.144531 360.648438 C 69.371094 359.867188 68.550781 359.097656 69.773438 357.585938 Z M 243.660156 211.96875 C 238.71875 213.1875 234.386719 215.796875 229.945312 218.117188 C 224.550781 220.9375 219.109375 223.667969 214.105469 227.207031 C 210.839844 229.519531 207.855469 232.199219 204.53125 234.402344 C 200.101562 237.339844 196.621094 241.230469 193.097656 245.101562 C 192.789062 245.441406 192.5625 245.898438 192.421875 246.339844 C 191.523438 249.152344 190.5625 251.953125 189.84375 254.816406 C 189.628906 255.683594 188.929688 256.941406 190.300781 257.691406 C 195.75 250.800781 201.769531 244.457031 208.660156 238.992188 C 214.527344 234.339844 220.824219 230.304688 227.535156 226.996094 C 235.324219 223.15625 243.390625 219.992188 251.960938 218.285156 C 252.519531 218.175781 253.261719 218.171875 253.445312 217.4375 C 253.851562 215.796875 254.011719 214.25 252.417969 212.972656 C 252.207031 212.800781 252.011719 212.609375 251.832031 212.402344 C 251.585938 212.121094 251.359375 211.8125 251.140625 211.5 C 250.871094 211.117188 250.609375 210.726562 250.328125 210.363281 C 248.105469 210.898438 245.878906 211.421875 243.660156 211.96875 Z M 151.503906 48.972656 C 152.667969 47.847656 153.703125 46.429688 155.449219 46.039062 C 157.703125 44.113281 160.363281 42.859375 162.996094 41.5625 C 164.078125 41.027344 164.277344 40.726562 163.058594 39.878906 C 158.675781 36.824219 154.386719 33.644531 149.542969 31.296875 C 147.246094 30.183594 146.820312 30.175781 145.550781 32.34375 C 145.351562 32.683594 145.21875 33.070312 145.066406 33.441406 C 142.6875 39.167969 140.546875 44.984375 139.265625 51.0625 C 138.777344 53.386719 138.3125 55.78125 138.65625 58.546875 C 139.40625 57.835938 139.859375 57.257812 140.445312 56.878906 C 140.835938 56.621094 141.195312 56.316406 141.550781 56.003906 C 141.730469 55.847656 141.902344 55.6875 142.082031 55.527344 C 142.964844 54.738281 143.878906 53.992188 145.183594 53.871094 C 147.125 52.03125 149.5625 50.84375 151.503906 48.972656 Z M 259.195312 51.257812 C 262.164062 53.117188 265.480469 52.511719 268.652344 52.445312 C 274.824219 52.3125 280.953125 51.59375 287.058594 50.628906 C 293.484375 49.617188 299.890625 48.3125 306.460938 48.933594 C 306.84375 47.886719 306.414062 46.734375 306.652344 45.777344 C 306.996094 44.410156 306.40625 44.660156 305.539062 44.53125 C 303.367188 44.210938 301.222656 44.75 299.078125 44.636719 C 290.285156 44.167969 281.566406 44.902344 272.878906 46.113281 C 270.929688 46.386719 268.984375 46.683594 267.050781 47.035156 C 263.828125 47.621094 260.636719 48.363281 257.511719 49.414062 C 257.585938 50.476562 258.457031 50.792969 259.195312 51.257812 Z M 91.5625 354.277344 C 94.773438 352.871094 97.964844 351.507812 99.734375 348.195312 C 90.3125 351.441406 80.75 354.25 70.816406 356.929688 C 71.167969 357.21875 71.503906 357.492188 71.824219 357.753906 C 72.199219 358.058594 72.546875 358.347656 72.890625 358.625 C 73.421875 359.058594 73.925781 359.472656 74.425781 359.882812 C 80.164062 358.089844 86.027344 356.699219 91.5625 354.277344 Z M 100.457031 347.875 C 100.265625 347.84375 100.09375 347.855469 99.980469 347.984375 C 99.941406 348.027344 99.910156 348.082031 99.886719 348.152344 C 100.078125 348.058594 100.265625 347.96875 100.457031 347.875 Z M 281.890625 64.382812 C 281.894531 64.378906 281.898438 64.375 281.898438 64.371094 C 281.882812 64.363281 281.871094 64.351562 281.855469 64.339844 C 281.867188 64.359375 281.878906 64.367188 281.890625 64.382812 Z M 274.996094 107.171875 C 275.535156 105.210938 276.164062 103.265625 276.683594 101.300781 C 278.890625 92.953125 280.742188 84.558594 281.449219 75.921875 C 281.742188 72.359375 282.078125 68.808594 282.101562 65.234375 C 282.101562 65.15625 282.113281 65.078125 282.117188 64.996094 C 282.121094 64.953125 282.125 64.914062 282.125 64.871094 C 282.128906 64.816406 282.125 64.761719 282.117188 64.710938 C 282.105469 64.644531 282.089844 64.582031 282.054688 64.527344 C 282.042969 64.503906 282.019531 64.480469 282 64.457031 C 281.964844 64.457031 281.929688 64.429688 281.890625 64.382812 C 281.890625 64.382812 281.886719 64.386719 281.886719 64.386719 C 281.375 64.3125 280.867188 64.242188 280.359375 64.183594 C 278.835938 64 277.3125 63.882812 275.792969 63.824219 C 274.78125 63.789062 273.769531 63.777344 272.757812 63.789062 C 271.75 63.804688 270.742188 63.84375 269.734375 63.90625 C 265.703125 64.152344 261.695312 64.773438 257.699219 65.667969 C 256.523438 65.929688 255.378906 66.316406 254.21875 66.648438 C 255.429688 69.335938 256.597656 72.042969 257.855469 74.710938 C 260.277344 79.859375 263.222656 84.765625 265.164062 90.136719 C 266.332031 93.363281 268.066406 96.332031 269.382812 99.464844 C 270.828125 102.90625 271.515625 106.664062 272.542969 110.28125 C 272.617188 110.539062 272.675781 110.800781 272.738281 111.0625 C 272.925781 111.84375 273.144531 112.617188 273.835938 113.171875 C 273.902344 112.363281 274.023438 111.570312 274.164062 110.777344 C 274.382812 109.5625 274.667969 108.363281 274.996094 107.171875 Z M 282 64.460938 C 282.050781 64.460938 282.09375 64.417969 282.132812 64.328125 C 282.152344 64.28125 282.105469 64.207031 282.089844 64.148438 C 282.027344 64.222656 281.964844 64.296875 281.898438 64.371094 C 281.898438 64.375 281.894531 64.378906 281.890625 64.382812 C 281.929688 64.429688 281.964844 64.460938 282 64.460938 Z M 281.855469 64.339844 C 281.855469 64.339844 281.886719 64.386719 281.886719 64.386719 C 281.886719 64.386719 281.890625 64.386719 281.890625 64.382812 C 281.878906 64.367188 281.867188 64.359375 281.855469 64.339844 Z M 281.855469 64.339844 " fill-opacity="1" fill-rule="nonzero"/><g clip-path="url(#id2)"><path fill="#070706" d="M 306.390625 245.675781 C 304.132812 236.867188 302.035156 227.921875 293.742188 222.355469 C 293.09375 221.917969 293.152344 221.476562 293.785156 220.910156 C 296.625 218.378906 298.472656 215.113281 300.382812 211.878906 C 302.347656 208.554688 303.75 204.59375 307.226562 202.617188 C 310.207031 200.921875 310.402344 198.316406 310.675781 195.683594 C 311.570312 187.09375 311.472656 178.457031 311.390625 169.847656 C 311.289062 159.480469 310.8125 149.117188 309.566406 138.804688 C 308.386719 129.054688 306.242188 119.542969 302.574219 110.441406 C 301.648438 108.140625 301.582031 106.144531 302.308594 103.964844 C 305.652344 93.921875 307.851562 83.636719 309.242188 73.148438 C 310.011719 67.351562 310 61.519531 310.355469 55.703125 C 310.574219 52.132812 311.167969 48.535156 310.558594 44.914062 C 310.359375 43.722656 309.609375 43.054688 308.800781 43.058594 C 304.394531 43.101562 300.070312 42.144531 295.652344 42.199219 C 282.546875 42.359375 269.636719 43.789062 257.023438 47.457031 C 255.882812 47.789062 255.042969 47.609375 254.035156 46.96875 C 248.605469 43.515625 242.964844 40.34375 236.910156 38.21875 C 225.363281 34.164062 213.507812 31.515625 201.121094 32.539062 C 199.894531 32.640625 199.09375 32.335938 198.246094 31.359375 C 196.363281 29.191406 194.082031 27.414062 191.878906 25.574219 C 186.394531 20.996094 180.144531 17.5625 174.199219 13.679688 C 168.058594 9.675781 161.441406 6.527344 154.953125 3.148438 C 151.703125 1.453125 148.335938 0.117188 144.527344 0.00390625 C 143.207031 -0.0351562 142.742188 0.300781 142.324219 1.335938 C 141.070312 4.429688 139.761719 7.503906 138.519531 10.601562 C 136.128906 16.539062 134.046875 22.585938 132.214844 28.71875 C 130.046875 35.957031 128.03125 43.230469 126.351562 50.601562 C 124.554688 58.46875 123.085938 66.34375 124.347656 74.453125 C 124.472656 75.261719 124.203125 75.902344 123.777344 76.492188 C 119.816406 81.996094 116.59375 87.914062 113.851562 94.113281 C 111.035156 100.476562 108.058594 106.84375 106.730469 113.667969 C 105.054688 122.289062 102.378906 130.703125 102.332031 139.699219 C 102.296875 146.347656 101.292969 153.003906 101.71875 159.703125 C 101.957031 163.453125 102.882812 164.582031 106.644531 165.265625 C 106.953125 165.320312 107.449219 165.195312 107.355469 165.703125 C 107.132812 166.921875 107.84375 168.441406 105.882812 169.074219 C 102.847656 170.050781 100.496094 172.210938 97.996094 174.09375 C 93.390625 177.558594 90.332031 182.558594 85.59375 185.996094 C 80.449219 189.722656 76.625 194.726562 73.933594 200.722656 C 71.164062 206.890625 68.566406 213.054688 67.210938 219.679688 C 64.261719 234.09375 65.054688 248.28125 69.9375 262.199219 C 73.609375 272.667969 79.285156 281.816406 87.535156 289.34375 C 95.0625 296.210938 103.757812 300.550781 113.847656 302.09375 C 117.019531 302.578125 120.273438 302.464844 123.351562 303.695312 C 126.734375 305.046875 130.351562 305.589844 133.910156 306.328125 C 138.535156 307.285156 142.945312 305.308594 147.476562 305.53125 C 148.796875 305.597656 149.59375 303.761719 150.613281 304.667969 C 151.5625 305.511719 151.945312 306.972656 152.644531 308.117188 C 157.078125 315.363281 163.085938 321.15625 169.6875 326.496094 C 167.789062 328.011719 165.496094 328.484375 163.34375 329.167969 C 148.886719 333.742188 134.230469 337.609375 119.5 341.183594 C 118.019531 341.542969 116.703125 342.011719 115.738281 343.25 C 115.480469 343.578125 115.054688 344.261719 114.65625 343.746094 C 114.125 343.054688 112.941406 343.074219 112.8125 342.1875 C 112.527344 340.257812 112.40625 340.132812 110.570312 340.910156 C 105.632812 343.007812 100.636719 344.960938 95.472656 346.425781 C 87.601562 348.660156 79.691406 350.757812 71.792969 352.882812 C 69.226562 353.574219 66.898438 354.496094 65.683594 357.140625 C 64.832031 358.984375 63.5 360.515625 63.65625 362.859375 C 63.902344 366.59375 65.828125 369.433594 67.820312 372.308594 C 68.777344 373.6875 69.808594 374.988281 71.578125 373.191406 C 71.824219 372.9375 72.34375 372.800781 72.714844 372.839844 C 76.492188 373.234375 79.882812 371.726562 83.226562 370.453125 C 94.742188 366.078125 106.332031 361.964844 118.066406 358.195312 C 125.105469 355.933594 132.207031 353.898438 139.320312 351.9375 C 151.832031 348.484375 164.046875 344.324219 175.519531 338.203125 C 177.210938 337.300781 179.328125 337.222656 180.648438 335.636719 C 181.929688 334.097656 183.167969 333.875 184.433594 335.273438 C 186.285156 337.316406 188.261719 339.183594 190.402344 340.925781 C 194.269531 344.070312 198.421875 346.75 202.898438 348.871094 C 208.496094 351.519531 214.570312 352.660156 220.601562 353.878906 C 221.355469 354.03125 222.175781 354.191406 222.675781 353.582031 C 223.585938 352.480469 224.792969 352.601562 225.96875 352.53125 C 232.53125 352.144531 238.796875 350.445312 244.828125 347.988281 C 252.894531 344.703125 260.253906 340.160156 267.074219 334.746094 C 274.980469 328.46875 281.933594 321.257812 288 313.1875 C 294.609375 304.402344 299.363281 294.625 303.230469 284.40625 C 307.992188 271.820312 309.789062 258.929688 306.390625 245.675781 Z M 70.792969 370.386719 C 70.5 370.410156 70.273438 370.378906 70.09375 370.140625 C 68.027344 367.4375 66.144531 364.652344 66.0625 361.070312 C 65.894531 359.800781 66.109375 358.933594 67.722656 358.910156 C 68.273438 358.902344 68.8125 358.234375 69.773438 357.585938 C 68.550781 359.097656 69.371094 359.867188 70.144531 360.648438 C 71.910156 361.894531 73.515625 363.265625 74.105469 365.480469 C 74.761719 367.941406 73.230469 370.203125 70.792969 370.386719 Z M 113.632812 356.21875 C 109.453125 357.539062 105.265625 358.832031 101.121094 360.25 C 93.242188 362.945312 85.65625 366.441406 77.734375 369.023438 C 76.96875 369.273438 76.226562 369.539062 75.105469 369.625 C 75.828125 368.523438 76.332031 367.445312 76.589844 366.394531 C 77.15625 364.082031 76.542969 361.90625 74.425781 359.882812 C 73.925781 359.472656 73.421875 359.058594 72.890625 358.625 C 72.546875 358.34375 72.199219 358.058594 71.824219 357.753906 C 71.503906 357.492188 71.167969 357.21875 70.816406 356.929688 C 80.75 354.25 90.3125 351.441406 99.734375 348.195312 L 99.792969 348.109375 C 99.792969 348.109375 99.886719 348.152344 99.886719 348.152344 C 99.914062 348.082031 99.945312 348.023438 99.980469 347.984375 C 100.097656 347.855469 100.265625 347.84375 100.457031 347.875 C 102.945312 346.921875 105.425781 345.933594 107.929688 345.023438 C 109.972656 344.28125 111.652344 345.011719 112.449219 347.03125 C 113.453125 349.578125 113.625 352.363281 114.675781 354.910156 C 115.039062 355.792969 114.324219 356 113.632812 356.21875 Z M 178.71875 18.691406 C 184.96875 22.746094 191.375 26.589844 196.265625 32.847656 C 193.972656 33.140625 192.160156 33.214844 190.4375 33.632812 C 188.625 34.078125 187.328125 33.25 186.511719 32.015625 C 182.757812 26.355469 177.601562 22.109375 172.445312 17.894531 C 168.039062 14.296875 163.566406 10.761719 158.914062 7.433594 C 165.914062 10.480469 172.332031 14.554688 178.71875 18.691406 Z M 126.878906 70.582031 C 126.78125 70.113281 126.707031 69.648438 126.652344 69.183594 C 126.597656 68.71875 126.5625 68.253906 126.542969 67.789062 C 126.523438 67.324219 126.523438 66.863281 126.53125 66.398438 C 126.542969 65.9375 126.570312 65.476562 126.605469 65.011719 C 126.746094 63.164062 127.054688 61.328125 127.335938 59.496094 C 127.535156 58.199219 127.742188 56.90625 127.964844 55.617188 C 128.09375 54.84375 128.234375 54.078125 128.378906 53.308594 C 128.960938 50.214844 129.65625 47.140625 130.578125 44.117188 C 131.230469 39.902344 132.480469 35.828125 133.59375 31.726562 C 135.832031 23.480469 138.371094 15.332031 141.828125 7.488281 C 142.429688 6.121094 142.316406 4.5 143.035156 3.101562 C 143.46875 2.257812 143.640625 1.75 144.910156 2.035156 C 146.425781 2.371094 147.871094 2.730469 149.191406 3.535156 C 152.519531 5.566406 155.929688 7.480469 158.757812 10.222656 C 161.359375 11.351562 163.28125 13.414062 165.351562 15.210938 C 171.074219 20.171875 176.917969 25.007812 182.011719 30.660156 C 183.183594 31.960938 184.835938 32.824219 186.578125 34.121094 C 184.039062 34.644531 181.785156 35.007812 179.585938 35.578125 C 175.40625 36.671875 171.292969 37.996094 167.285156 39.628906 C 166.75 39.847656 166.320312 40.132812 165.871094 39.574219 C 162.273438 35.128906 157.320312 32.523438 152.523438 29.695312 C 151.027344 28.816406 149.617188 27.800781 147.777344 27.738281 C 146.539062 27.695312 145.445312 27.929688 144.925781 29.160156 C 141.136719 38.164062 137.707031 47.308594 136.769531 57.101562 C 136.511719 59.804688 135.910156 61.832031 133.960938 63.75 C 133.363281 64.339844 132.785156 64.949219 132.222656 65.578125 C 130.53125 67.457031 128.972656 69.464844 127.328125 71.386719 C 127.203125 71.933594 127.011719 72.417969 126.589844 72.78125 C 126.507812 72.855469 126.414062 72.921875 126.3125 72.984375 C 126.105469 73.109375 125.855469 73.214844 125.558594 73.292969 C 126.050781 72.285156 126.464844 71.433594 126.878906 70.582031 Z M 105.894531 161.753906 C 102.867188 160.015625 103.070312 157.066406 103.054688 154.226562 C 103.011719 145.886719 103.601562 137.554688 105.214844 129.40625 C 106.800781 121.378906 107.597656 113.195312 110.59375 105.402344 C 115.492188 92.667969 121.390625 80.609375 130.265625 70.113281 C 134.128906 65.550781 138.007812 61.03125 142.535156 57.117188 C 142.808594 56.878906 143.101562 56.664062 143.386719 56.445312 C 144.25 55.789062 145.0625 55.128906 145.183594 53.871094 C 143.878906 53.992188 142.964844 54.738281 142.082031 55.527344 C 141.90625 55.6875 141.730469 55.847656 141.550781 56.003906 C 141.195312 56.316406 140.835938 56.621094 140.445312 56.878906 C 139.859375 57.257812 139.40625 57.835938 138.65625 58.546875 C 138.3125 55.78125 138.777344 53.386719 139.265625 51.0625 C 140.546875 44.984375 142.6875 39.167969 145.066406 33.441406 C 145.222656 33.070312 145.351562 32.6875 145.550781 32.34375 C 146.816406 30.175781 147.246094 30.183594 149.542969 31.296875 C 154.386719 33.644531 158.675781 36.824219 163.058594 39.878906 C 164.277344 40.726562 164.078125 41.027344 162.996094 41.5625 C 160.363281 42.859375 157.707031 44.113281 155.449219 46.039062 C 155.226562 46.546875 154.554688 47.082031 155.347656 47.582031 C 155.960938 47.96875 156.542969 47.570312 156.976562 47.136719 C 162.167969 41.910156 169.097656 40.140625 175.746094 38.046875 C 183.765625 35.523438 192.113281 34.421875 200.515625 34.117188 C 203.488281 34.007812 206.46875 34.011719 209.441406 34.191406 C 211.226562 34.300781 213.007812 34.472656 214.78125 34.722656 C 218.050781 35.269531 221.3125 35.824219 224.53125 36.527344 C 229.898438 37.699219 235.144531 39.285156 240.101562 41.964844 C 244.191406 44.175781 248.363281 46.226562 252.492188 48.726562 C 250.441406 49.828125 248.113281 50.164062 246.523438 51.847656 C 246.25 52.296875 245.980469 52.742188 245.410156 53.675781 C 245.9375 53.445312 246.460938 53.214844 246.972656 52.984375 C 250.578125 51.394531 253.90625 49.980469 257.511719 49.414062 C 260.636719 48.363281 263.828125 47.621094 267.050781 47.035156 C 268.984375 46.683594 270.929688 46.386719 272.875 46.113281 C 281.566406 44.902344 290.285156 44.167969 299.078125 44.636719 C 301.222656 44.75 303.367188 44.210938 305.539062 44.53125 C 306.40625 44.660156 306.996094 44.410156 306.652344 45.777344 C 306.410156 46.734375 306.839844 47.886719 306.460938 48.933594 C 306.144531 53.777344 305.367188 58.535156 304 63.210938 C 301.570312 71.535156 299.292969 79.902344 296.585938 88.144531 C 292.757812 99.820312 288.910156 111.488281 283.839844 122.703125 C 282.578125 125.492188 281.589844 128.410156 279.71875 130.90625 C 279.148438 131.671875 279.496094 132.792969 278.964844 133.707031 C 278.664062 134.226562 278.21875 135.296875 278.867188 135.757812 C 279.15625 135.960938 279.378906 135.90625 279.582031 135.753906 C 279.855469 135.546875 280.09375 135.164062 280.398438 134.964844 C 280.472656 134.914062 280.550781 134.875 280.636719 134.855469 C 281.300781 134.65625 281.902344 134.367188 282.464844 134.027344 C 282.777344 133.835938 283.074219 133.632812 283.363281 133.410156 C 283.878906 133.015625 284.359375 132.578125 284.808594 132.109375 C 285.191406 131.710938 285.558594 131.289062 285.910156 130.863281 C 290.332031 125.53125 294.109375 119.738281 297.511719 113.707031 C 297.679688 113.410156 297.808594 113.09375 297.917969 112.765625 C 298.246094 111.789062 298.414062 110.734375 299.054688 109.878906 C 298.65625 108.984375 298.289062 108.988281 297.933594 109.398438 C 297.816406 109.53125 297.699219 109.714844 297.582031 109.921875 C 296.238281 112.304688 294.894531 114.683594 293.546875 117.058594 C 290.507812 122.414062 286.585938 127.050781 281.703125 131.035156 C 296.269531 108.503906 302.972656 83.144531 308.238281 56.914062 C 308.238281 61.304688 308.519531 65.265625 308.1875 69.175781 C 307.1875 80.910156 304.585938 92.335938 301.058594 103.558594 C 300.832031 104.289062 300.855469 104.859375 299.636719 105.015625 C 299.433594 105.039062 299.285156 105.085938 299.175781 105.144531 C 299.066406 105.203125 299 105.28125 298.964844 105.367188 C 298.945312 105.410156 298.9375 105.460938 298.933594 105.507812 C 298.925781 105.605469 298.941406 105.714844 298.972656 105.828125 C 299.015625 105.984375 299.085938 106.148438 299.152344 106.320312 C 299.175781 106.375 299.199219 106.433594 299.21875 106.488281 C 299.230469 106.515625 299.242188 106.542969 299.25 106.570312 C 299.273438 106.632812 299.292969 106.695312 299.3125 106.757812 C 299.386719 107.007812 299.410156 107.25 299.296875 107.449219 C 299.433594 107.539062 299.507812 107.640625 299.546875 107.738281 C 299.554688 107.761719 299.554688 107.78125 299.558594 107.804688 C 299.5625 107.832031 299.574219 107.863281 299.574219 107.894531 C 299.582031 108.101562 299.476562 108.324219 299.4375 108.539062 C 299.429688 108.589844 299.421875 108.644531 299.425781 108.695312 C 299.960938 109.152344 299.273438 109.472656 299.289062 109.867188 C 300.96875 112.253906 301.625 115.039062 302.34375 117.789062 C 304.382812 125.539062 305.78125 133.414062 307.273438 141.285156 C 309.835938 154.769531 309.492188 168.320312 309.324219 181.894531 C 309.292969 184.59375 309.089844 187.289062 308.96875 189.984375 C 308.820312 191.921875 308.820312 193.882812 308.492188 195.785156 C 307.664062 200.566406 304.742188 203.878906 300.378906 205.621094 C 288.808594 210.242188 276.835938 213.332031 264.382812 214.4375 C 262.707031 214.585938 262.640625 214.011719 262.929688 212.671875 C 265.484375 200.976562 266.902344 189.144531 267.429688 177.183594 C 268.074219 162.496094 267.496094 147.867188 265.628906 133.296875 C 263.738281 118.546875 260.414062 104.09375 255.316406 90.128906 C 252.371094 82.054688 248.632812 74.3125 243.945312 67.027344 C 239.148438 59.570312 233.671875 52.816406 226.296875 47.785156 C 220.597656 43.898438 214.375 41.601562 207.332031 41.949219 C 206.355469 41.996094 205.945312 42.304688 206.007812 43.1875 C 206.0625 43.984375 206.417969 44.566406 207.382812 44.558594 C 219.636719 44.453125 228.28125 51.085938 235.925781 59.722656 C 242.34375 66.976562 246.875 75.34375 250.78125 84.105469 C 256.5625 97.082031 260.300781 110.652344 262.722656 124.636719 C 266.285156 145.203125 266.949219 165.839844 264.835938 186.582031 C 263.949219 195.289062 262.734375 203.9375 260.617188 212.441406 C 260.492188 212.949219 260.628906 213.652344 259.925781 213.730469 C 259.257812 213.808594 258.734375 213.371094 258.648438 212.699219 C 258.519531 211.710938 257.832031 211.222656 257.105469 210.773438 C 255.25 209.625 254.035156 207.855469 252.632812 206.265625 C 252 205.546875 251.925781 204.636719 251.960938 203.800781 C 252.09375 200.75 251.894531 197.691406 252.027344 194.660156 C 252.179688 191.125 252.914062 187.617188 253.417969 184.101562 C 254.539062 176.269531 255.035156 168.386719 255.199219 160.484375 C 255.429688 149.324219 254.804688 138.195312 252.945312 127.203125 C 250.851562 114.816406 247.597656 102.71875 242.378906 91.21875 C 237.992188 81.546875 232.574219 72.535156 225.335938 64.703125 C 224.054688 63.316406 222.605469 62.0625 221.113281 60.898438 C 219.195312 59.402344 217.816406 57.324219 215.898438 55.898438 C 213.894531 54.410156 211.597656 53.316406 209.414062 52.074219 C 204.902344 49.507812 200.109375 47.644531 195.003906 46.679688 C 189.425781 45.625 183.828125 45.632812 178.226562 46.605469 C 177.59375 46.71875 176.96875 46.855469 176.351562 47.007812 C 174.496094 47.472656 172.6875 48.089844 170.835938 48.566406 C 170.46875 48.851562 170.070312 49.070312 169.65625 49.253906 C 169.070312 49.515625 168.449219 49.707031 167.835938 49.914062 C 167.207031 50.121094 166.585938 50.34375 166.007812 50.667969 C 164.292969 51.632812 162.511719 52.472656 160.761719 53.367188 C 156.5 56.328125 152.347656 59.386719 148.609375 63.046875 C 142.714844 68.8125 137.746094 75.269531 133.527344 82.304688 C 128.507812 90.675781 124.546875 99.554688 121.539062 108.832031 C 117.679688 120.734375 114.953125 132.890625 113.878906 145.382812 C 113.765625 146.730469 113.277344 147.011719 111.964844 146.894531 C 107.261719 146.46875 107.292969 146.527344 107.4375 141.894531 C 107.519531 139.195312 107.132812 136.226562 108.246094 133.921875 C 109.546875 131.21875 109.992188 128.417969 110.667969 125.644531 C 113.144531 115.5 115.9375 105.476562 120.242188 95.914062 C 123.753906 88.117188 128.816406 81.390625 134.292969 74.917969 C 139.058594 69.28125 144.152344 63.980469 149.980469 59.421875 C 151.550781 58.195312 153.160156 57.023438 154.820312 55.9375 C 156.480469 54.847656 158.195312 53.84375 159.984375 52.945312 C 161.980469 51.804688 164.015625 50.734375 166.105469 49.777344 C 167.386719 49.1875 168.683594 48.636719 170.019531 48.164062 C 175.789062 45.347656 181.910156 43.851562 188.195312 42.992188 C 189.09375 42.867188 189.996094 42.757812 190.898438 42.660156 C 191.753906 42.566406 192.621094 42.667969 193.304688 41.976562 C 193.613281 41.664062 194.335938 41.539062 194.082031 41.003906 C 193.949219 40.722656 193.246094 40.542969 192.832031 40.585938 C 187.707031 41.121094 182.613281 41.886719 177.722656 43.539062 C 168.761719 46.574219 160.261719 50.621094 152.480469 56.015625 C 145.535156 60.832031 139.535156 66.730469 134.074219 73.15625 C 128.167969 80.105469 122.65625 87.371094 118.074219 95.257812 C 114.769531 100.941406 112.199219 106.964844 110.546875 113.402344 C 107.425781 125.59375 105.558594 137.921875 105.851562 150.511719 C 105.949219 154.761719 105.890625 159.105469 107.757812 163.113281 C 106.21875 163.675781 106.535156 162.117188 105.894531 161.753906 Z M 303.507812 70.8125 C 303.628906 69.394531 303.714844 67.945312 304.539062 66.574219 C 304.789062 68.203125 304.164062 69.507812 303.507812 70.8125 Z M 303.015625 71.703125 L 303.023438 71.695312 C 303.023438 71.695312 303.015625 71.703125 303.015625 71.703125 C 303.011719 71.703125 303.078125 71.628906 303.078125 71.628906 L 303.023438 71.691406 C 303.019531 71.703125 303.019531 71.714844 303.011719 71.722656 C 303.015625 72.921875 302.757812 74.058594 302.382812 75.164062 C 302.15625 75.832031 301.886719 76.492188 301.605469 77.144531 C 301.882812 75.289062 302.261719 73.460938 303.011719 71.722656 C 303.011719 71.71875 303.015625 71.710938 303.015625 71.703125 Z M 282.851562 214.648438 C 282.148438 216.84375 281.128906 217.050781 277.457031 215.800781 C 279.152344 215.28125 281.136719 216.507812 282.851562 214.648438 Z M 174.078125 306.140625 C 174.097656 306.46875 173.996094 306.804688 173.949219 307.132812 C 174.261719 307.957031 174.382812 308.804688 174.386719 309.664062 C 174.386719 309.953125 174.375 310.242188 174.351562 310.53125 C 174.246094 309.332031 173.128906 308.40625 173.425781 307.105469 C 171.449219 301.148438 171.011719 294.972656 170.855469 288.761719 C 170.585938 277.8125 172.746094 267.265625 176.757812 257.160156 C 182.15625 243.578125 190.144531 231.710938 201.105469 221.898438 C 208.140625 215.601562 215.941406 210.570312 224.632812 206.949219 C 231.589844 204.050781 238.855469 202.253906 246.363281 201.558594 C 247.035156 201.496094 247.628906 201.222656 248.449219 201.144531 C 248.085938 202.4375 248.023438 203.660156 248.175781 204.828125 C 248.253906 205.414062 248.382812 205.988281 248.554688 206.550781 C 248.636719 206.8125 248.726562 207.070312 248.824219 207.324219 C 249.21875 208.363281 249.742188 209.371094 250.328125 210.363281 C 250.609375 210.726562 250.871094 211.117188 251.140625 211.5 C 251.359375 211.8125 251.585938 212.121094 251.832031 212.402344 C 252.011719 212.609375 252.207031 212.800781 252.417969 212.972656 C 254.011719 214.253906 253.851562 215.796875 253.445312 217.4375 C 253.261719 218.171875 252.519531 218.175781 251.960938 218.285156 C 243.390625 219.992188 235.324219 223.15625 227.535156 226.996094 C 220.824219 230.304688 214.527344 234.339844 208.660156 238.992188 C 201.769531 244.457031 195.75 250.800781 190.300781 257.691406 C 185.828125 264.050781 181.820312 270.660156 178.972656 277.9375 C 175.417969 287.015625 173.53125 296.359375 174.078125 306.140625 Z M 249.832031 203.917969 C 251.074219 207.484375 253.246094 210.074219 255.628906 212.515625 C 255.816406 212.773438 256.503906 212.675781 256.269531 213.109375 C 256.128906 213.375 255.585938 213.261719 255.441406 212.78125 C 252.484375 211.355469 249.644531 207.058594 249.832031 203.917969 Z M 145.878906 141.210938 C 146.144531 143.277344 146.222656 145.359375 146.199219 147.4375 C 146.191406 148.128906 146.175781 148.820312 146.148438 149.511719 C 146.09375 151.074219 145.242188 152.421875 143.886719 153.335938 C 141.675781 154.832031 139.289062 156.050781 136.691406 156.578125 C 129.691406 157.996094 122.78125 159.78125 115.917969 161.714844 C 114.140625 162.214844 114.207031 161.625 114.234375 160.304688 C 114.300781 156.847656 114.378906 153.390625 114.757812 149.949219 C 114.851562 149.109375 115.035156 148.691406 116.070312 148.636719 C 121.898438 148.320312 127.3125 146.210938 132.835938 144.582031 C 135.339844 143.84375 137.761719 142.726562 140.46875 142.941406 C 140.945312 142.980469 141.179688 142.617188 141.464844 142.34375 C 142.128906 140.9375 141.789062 140.488281 140.234375 140.941406 C 134.75 142.542969 129.242188 144.0625 123.765625 145.683594 C 121.425781 146.378906 119.019531 146.535156 116.628906 146.855469 C 115.289062 147.035156 115.050781 146.558594 115.183594 145.285156 C 116.121094 136.441406 117.777344 127.730469 120.066406 119.144531 C 122.011719 111.855469 124.410156 104.707031 127.511719 97.816406 C 132.777344 86.113281 139.347656 75.199219 148.492188 66.117188 C 157.003906 57.660156 166.871094 51.328125 179.027344 49.414062 C 189.488281 47.765625 199.28125 49.816406 208.414062 55.117188 C 208.652344 55.253906 209.222656 55.175781 208.921875 55.890625 C 208.617188 56.601562 208.21875 56.902344 207.503906 57.035156 C 204.722656 57.539062 201.988281 58.265625 199.347656 59.269531 C 190.703125 62.539062 183.320312 67.761719 176.675781 74.09375 C 175.621094 75.097656 174.515625 75.898438 173.152344 76.5 C 169.6875 78.027344 168.464844 81.648438 166.429688 84.425781 C 160.207031 92.910156 155.085938 102.074219 151.113281 111.828125 C 149.917969 114.765625 148.945312 117.746094 148.175781 120.769531 C 147.367188 123.960938 146.789062 127.195312 146.414062 130.464844 C 146.316406 131.316406 146.230469 132.171875 146.160156 133.027344 C 146.078125 134.015625 146.015625 135.007812 145.96875 136.003906 C 145.886719 137.730469 145.855469 139.46875 145.878906 141.210938 Z M 129.289062 159.96875 C 129.335938 161.480469 128.675781 162.210938 127.292969 162.453125 C 126.316406 162.625 125.371094 162.972656 124.421875 163.273438 C 123.789062 163.472656 123.527344 163.382812 123.375 162.625 C 123.246094 161.976562 122.953125 161.464844 123.835938 161.253906 C 125.640625 160.816406 127.449219 160.398438 129.289062 159.96875 Z M 108.015625 158.769531 C 107.707031 155.605469 107.523438 152.429688 107.273438 149.257812 C 107.214844 148.542969 107.632812 148.480469 108.152344 148.511719 C 108.824219 148.554688 109.496094 148.617188 109.78125 148.644531 C 113.410156 148.761719 113.40625 148.761719 113.269531 151.898438 C 113.125 155.132812 113.070312 158.371094 112.828125 161.597656 C 112.6875 163.472656 110.980469 162.808594 109.894531 163.074219 C 108.496094 163.414062 109.019531 162.515625 109.054688 161.792969 C 109.105469 160.679688 108.121094 159.828125 108.015625 158.769531 Z M 109.570312 124.453125 C 110.957031 116.734375 112.164062 108.972656 116.238281 102.074219 C 113.871094 109.492188 111.503906 116.914062 109.570312 124.453125 Z M 88.183594 286.570312 C 78.171875 277.6875 72.414062 266.410156 69.101562 253.800781 C 66.957031 245.644531 66.382812 237.214844 67.238281 228.78125 C 68.152344 219.738281 70.296875 210.96875 74.601562 202.925781 C 77.105469 198.25 79.96875 193.71875 84.046875 190.144531 C 84.289062 189.929688 84.4375 189.570312 84.945312 189.714844 C 85.285156 190.53125 84.609375 191.164062 84.378906 191.871094 C 84.074219 192.820312 83.515625 193.699219 83.285156 194.660156 C 82.078125 199.75 79.550781 204.332031 77.808594 209.214844 C 76.703125 212.3125 76.15625 215.558594 75.910156 218.820312 C 75.496094 224.347656 73.875 229.714844 74.140625 235.34375 C 74.613281 245.367188 76.632812 255.054688 80.742188 264.152344 C 84.042969 271.457031 88.347656 278.328125 94.082031 283.992188 C 99.367188 289.210938 104.710938 294.476562 111.378906 298.054688 C 111.707031 298.226562 111.949219 298.554688 112.417969 298.980469 C 102.992188 297.109375 95.191406 292.792969 88.183594 286.570312 Z M 148.03125 302.722656 C 144.785156 302.910156 141.566406 303.386719 138.316406 303.574219 C 133.621094 303.847656 129.234375 302.554688 124.867188 301.265625 C 113.867188 298.019531 104.726562 291.722656 97.042969 283.363281 C 91 276.78125 86.136719 269.398438 82.839844 260.992188 C 77.4375 247.210938 76 232.972656 77.421875 218.351562 C 77.652344 216.003906 78.546875 213.8125 79.328125 211.609375 C 80.507812 208.285156 81.699219 204.96875 82.925781 201.664062 C 84.445312 197.554688 87.429688 194.300781 89.523438 190.519531 C 93.386719 183.542969 98.378906 177.496094 104.726562 172.609375 C 105.894531 171.714844 107.039062 170.796875 108.222656 169.925781 C 109.246094 169.179688 109.09375 169.433594 110.027344 170.46875 C 110.679688 171.191406 112.101562 171.675781 113.207031 170.921875 C 118.335938 167.441406 124.125 165.609375 130.042969 164.105469 C 131.992188 163.609375 133.976562 163.140625 135.96875 162.953125 C 139.101562 162.660156 142.222656 162.320312 145.34375 161.914062 C 147.449219 161.640625 149.601562 162.152344 151.730469 163.074219 C 154.269531 164.171875 157.171875 164.332031 159.746094 165.589844 C 166.050781 168.664062 171.070312 173.363281 175.984375 178.199219 C 179.433594 181.597656 182.371094 185.441406 184.71875 189.664062 C 186.074219 192.101562 187.101562 194.746094 188.015625 197.386719 C 188.417969 198.539062 190.15625 199.386719 189.339844 200.664062 C 188.75 201.585938 187.359375 201.976562 186.375 202.671875 C 182.53125 205.375 178.761719 208.183594 175.273438 211.335938 C 174.035156 212.453125 173.332031 212.785156 173.097656 210.734375 C 172.742188 207.652344 170.410156 205.449219 169.453125 202.605469 C 168.960938 201.136719 169.046875 199.808594 169.839844 198.78125 C 173.113281 194.539062 175.089844 189.710938 176.671875 184.664062 C 176.855469 184.078125 177.273438 183.421875 176.617188 183.113281 C 175.902344 182.773438 175.3125 183.398438 175.027344 184.027344 C 174.617188 184.9375 174.292969 185.894531 174.023438 186.855469 C 172.808594 191.128906 170.457031 194.746094 167.679688 198.144531 C 167.132812 198.816406 166.671875 198.90625 166.023438 198.378906 C 165.359375 197.835938 164.675781 197.3125 164.007812 196.773438 C 163.25 196.164062 161.738281 196.167969 161.675781 195.234375 C 161.621094 194.421875 162.613281 193.554688 163.085938 192.683594 C 164.300781 190.457031 165.515625 188.230469 166.664062 185.96875 C 166.964844 185.375 167.617188 184.488281 166.605469 184.066406 C 165.671875 183.675781 165.664062 184.78125 165.371094 185.296875 C 163.90625 187.851562 162.476562 190.421875 161.042969 192.992188 C 160.519531 193.933594 159.96875 194.710938 159.054688 193.355469 C 158.695312 192.824219 158.171875 192.832031 157.628906 192.761719 C 154.65625 192.398438 151.75 192.046875 149.683594 189.328125 C 148.890625 188.285156 147.234375 188.300781 145.875 188.195312 C 144.253906 188.070312 143.632812 187.59375 144.414062 185.796875 C 145.125 184.164062 145.324219 182.308594 144.859375 180.488281 C 144.730469 179.972656 144.699219 179.382812 143.921875 179.410156 C 143.324219 179.433594 142.917969 179.671875 142.644531 180.222656 C 141.746094 182.019531 140.574219 183.722656 139.976562 185.613281 C 139.507812 187.078125 138.527344 187.613281 137.386719 188.070312 C 135.015625 189.015625 132.554688 189.703125 130.113281 190.449219 C 127.078125 191.378906 124.609375 193.359375 122.5 195.765625 C 122.160156 196.152344 122.027344 197.164062 121.234375 196.761719 C 120.65625 196.46875 121.003906 195.664062 120.917969 195.089844 C 120.835938 194.523438 121.839844 193.695312 120.832031 193.46875 C 119.984375 193.28125 119.449219 194.121094 119.308594 195.011719 C 119.246094 195.414062 119.0625 195.84375 119.148438 196.207031 C 120.046875 200.054688 117.957031 203.136719 116.605469 206.414062 C 112.714844 215.855469 112.195312 225.617188 113.898438 235.808594 C 110.097656 234.570312 106.472656 233.425781 102.609375 233.375 C 99.238281 233.332031 97.632812 234.34375 97.167969 236.84375 C 96.800781 238.820312 97.542969 240.15625 99.960938 241.28125 C 102.082031 242.269531 104.3125 243.023438 106.640625 243.402344 C 107.285156 243.507812 108.082031 243.75 108.519531 243.101562 C 108.917969 242.511719 109.292969 241.746094 109.253906 241.078125 C 109.230469 240.628906 108.320312 240.886719 107.832031 240.722656 C 104.953125 239.742188 101.8125 239.339844 99.242188 236.90625 C 102.335938 236.007812 105.019531 237.070312 107.730469 237.546875 C 108.707031 237.71875 109.648438 238.109375 110.601562 238.417969 C 112.640625 239.078125 112.640625 239.082031 114.078125 237.632812 C 115.425781 242.34375 116.238281 247.144531 118.699219 251.441406 C 119.667969 253.136719 117.894531 254.339844 116.886719 255.53125 C 116.648438 255.816406 116.121094 255.851562 115.863281 256.132812 C 115.25 256.796875 115.214844 257.695312 115.691406 258.347656 C 116.21875 259.0625 117.011719 258.511719 117.445312 258.105469 C 118.222656 257.378906 118.910156 256.539062 119.332031 255.519531 C 119.695312 254.632812 120.171875 254.441406 120.65625 255.433594 C 123.65625 261.601562 128.558594 266.15625 133.59375 270.574219 C 134.820312 271.652344 135.753906 272.660156 135.554688 274.421875 C 135.476562 275.125 135.699219 275.867188 135.804688 276.589844 C 135.929688 277.4375 135.824219 278.480469 136.902344 278.765625 C 138.109375 279.082031 138.582031 278.027344 139.335938 277.375 C 140.039062 276.769531 139.761719 275.332031 141.234375 275.390625 C 142.9375 275.453125 143.707031 276.066406 143.765625 277.890625 C 144.007812 285.871094 145.933594 293.484375 149.074219 300.804688 C 149.546875 301.917969 149.542969 302.632812 148.03125 302.722656 Z M 164.753906 222.316406 C 157.140625 233.898438 151.683594 246.472656 147.664062 259.695312 C 146.832031 262.429688 145.945312 265.171875 145.589844 268.03125 C 145.230469 270.9375 144.78125 271.386719 141.75 271.136719 C 141.234375 271.09375 140.734375 271.167969 140.46875 271.355469 C 138.652344 272.652344 137.863281 271.117188 137.101562 270.066406 C 136.671875 269.46875 136.511719 268.976562 135.65625 269.234375 C 135.296875 269.339844 134.9375 269.136719 134.585938 268.835938 C 129.445312 264.402344 124.453125 259.75 121.335938 253.664062 C 119.203125 249.496094 117.011719 245.257812 116.144531 240.515625 C 115.285156 235.832031 114.28125 231.171875 114.289062 226.375 C 114.136719 220.546875 115.691406 215.050781 118.460938 210.042969 C 120.152344 206.984375 123.617188 206.019531 126.976562 205.488281 C 132.628906 204.59375 138.160156 205.59375 143.648438 206.769531 C 149.179688 207.953125 154.378906 210.078125 159.433594 212.601562 C 163.015625 214.394531 164.015625 217.800781 165.054688 221.207031 C 165.164062 221.574219 165.003906 221.933594 164.753906 222.316406 Z M 160.785156 309.632812 C 159.992188 310.1875 159.773438 310.808594 159.929688 312.238281 C 158.042969 310.011719 156.691406 308.246094 155.363281 306.074219 C 157.300781 306.511719 159.035156 306.722656 160.613281 307.332031 C 161.730469 307.761719 161.757812 308.949219 160.785156 309.632812 Z M 152.160156 292.640625 C 152.332031 293.789062 152.363281 294.785156 153.953125 294.113281 C 154.28125 293.976562 154.90625 293.773438 154.894531 294.394531 C 154.859375 296.367188 156.558594 296.300781 157.664062 296.664062 C 159.730469 297.339844 161.925781 297.308594 164.085938 297.09375 C 166.039062 296.902344 167.296875 295.695312 168.136719 293.851562 C 168.285156 294.171875 168.371094 294.273438 168.378906 294.382812 C 168.863281 301.679688 168.539062 300.703125 162.222656 299.898438 C 160.757812 299.710938 159.261719 299.746094 157.78125 299.675781 C 157.191406 299.644531 156.550781 299.734375 156.011719 299.539062 C 153.464844 298.632812 153.171875 298.835938 153.445312 301.597656 C 153.46875 301.84375 153.679688 302.066406 153.324219 302.363281 C 152.136719 301.0625 151.648438 299.390625 150.960938 297.851562 C 150.253906 296.269531 149.6875 294.617188 149.09375 292.984375 C 147.402344 288.296875 146.378906 283.449219 145.800781 278.511719 C 145.675781 277.425781 145.371094 276.335938 146.617188 275.429688 C 147.347656 274.894531 147.179688 273.578125 147.015625 272.742188 C 146.410156 269.625 147.484375 266.773438 148.296875 263.929688 C 151.371094 253.160156 155.40625 242.765625 160.824219 232.925781 C 166.695312 222.261719 174.292969 213.175781 184.429688 206.296875 C 188.769531 203.351562 193.195312 200.617188 198.234375 199.023438 C 199.480469 198.628906 200.296875 197.796875 200.738281 196.574219 C 198.15625 196.367188 195.96875 197.59375 193.707031 198.523438 C 192.59375 198.980469 191.519531 199.523438 190.363281 200.058594 C 186.324219 186.292969 177.902344 175.878906 166.679688 167.375 C 161.332031 163.324219 155.582031 160.703125 148.921875 160.0625 C 148.0625 159.980469 147.191406 159.949219 146.324219 159.976562 C 145.605469 160 144.238281 159.902344 144.359375 159.714844 C 145.019531 158.699219 143.699219 157.289062 145.152344 156.492188 C 145.953125 156.050781 146.667969 155.371094 147.273438 154.671875 C 148.390625 153.371094 149.34375 151.84375 148.941406 150.09375 C 147.734375 144.84375 148.847656 139.632812 149.21875 134.453125 C 149.894531 125.058594 152.339844 115.9375 156.007812 107.3125 C 162.71875 91.511719 172.480469 77.90625 187.011719 68.292969 C 193.316406 64.121094 200.074219 60.859375 207.777344 59.765625 C 213.695312 58.925781 218.394531 60.230469 222.175781 65.074219 C 226.007812 69.988281 230.589844 74.414062 233.257812 80.085938 C 235.546875 84.960938 237.808594 89.863281 239.957031 94.804688 C 243.253906 102.390625 245.242188 110.390625 247.199219 118.410156 C 249.460938 127.695312 251.175781 137.0625 251.957031 146.578125 C 252.839844 157.269531 252.859375 167.980469 251.941406 178.671875 C 251.71875 181.277344 251.253906 183.863281 250.886719 186.578125 C 243.441406 185.089844 236.003906 185.226562 228.589844 186.371094 C 219.523438 187.773438 210.898438 190.453125 203.214844 195.660156 C 202.898438 195.875 202.660156 196.210938 202.386719 196.488281 C 202.4375 197.289062 200.84375 197.769531 201.714844 198.5 C 202.191406 198.898438 203.042969 197.945312 203.65625 197.480469 C 208.117188 194.078125 213.488281 192.792969 218.71875 191.390625 C 227.214844 189.113281 235.902344 188.121094 244.714844 189.238281 C 246.171875 189.421875 247.613281 189.75 249.039062 190.09375 C 249.820312 190.277344 250.21875 190.644531 249.957031 191.6875 C 249.441406 193.765625 249.128906 195.902344 248.863281 198.03125 C 248.734375 199.058594 248.320312 199.3125 247.328125 199.398438 C 236.050781 200.375 225.535156 203.78125 215.753906 209.460938 C 203.621094 216.507812 193.65625 225.863281 185.632812 237.371094 C 180.058594 245.363281 176.171875 254.097656 172.628906 263.136719 C 169.597656 270.863281 167.90625 278.734375 167.234375 286.910156 C 167.140625 288.070312 166.621094 288.214844 165.542969 288.109375 C 161.753906 287.746094 158.039062 288.214844 154.480469 289.597656 C 153.148438 290.117188 151.882812 290.75 152.160156 292.640625 Z M 177.488281 334.785156 C 168.179688 339.820312 158.160156 343.015625 148.070312 345.972656 C 138.359375 348.820312 128.476562 351.042969 118.355469 354.195312 C 120.089844 350.714844 118.84375 348.109375 116.617188 345.515625 C 121.699219 344.703125 126.453125 343.414062 131.242188 342.300781 C 138.449219 340.621094 145.417969 338.15625 152.566406 336.320312 C 160.171875 334.363281 167.265625 331.125 174.367188 327.90625 C 175.449219 327.414062 176.414062 326.167969 177.523438 326.300781 C 178.925781 326.46875 178.394531 328.273438 179.042969 329.277344 C 181.269531 332.738281 181.144531 332.808594 177.488281 334.785156 Z M 301.554688 277.574219 C 299.558594 292.820312 292.246094 305.59375 282.570312 317.144531 C 274.34375 326.964844 264.589844 334.960938 253.246094 341.042969 C 246.941406 344.421875 240.328125 346.839844 233.367188 348.214844 C 229.316406 349.015625 225.167969 348.785156 221.015625 348.71875 C 213.195312 348.589844 208.691406 343.566406 204.84375 338.09375 C 201.117188 332.789062 199.621094 326.4375 199.632812 321.394531 C 199.375 309.65625 202.144531 300.125 206.472656 291.039062 C 211.191406 281.148438 217.617188 272.398438 225.457031 264.761719 C 232.042969 258.347656 239.316406 252.863281 247.632812 248.742188 C 256.148438 244.523438 264.992188 241.789062 274.523438 241.839844 C 281.882812 241.882812 288.769531 243.777344 294.726562 248.347656 C 294.984375 248.546875 295.453125 248.820312 295.425781 248.992188 C 294.957031 251.859375 297.445312 253.335938 298.496094 255.460938 C 301.992188 262.527344 302.550781 269.957031 301.554688 277.574219 Z M 302.75 255.300781 C 303.871094 254.554688 303.804688 253.933594 303.039062 252.703125 C 298.347656 245.15625 291.269531 241.289062 282.886719 239.660156 C 275.019531 238.128906 267.246094 239.25 259.628906 241.554688 C 245.699219 245.765625 234.160156 253.824219 223.78125 263.753906 C 222.628906 264.851562 221.777344 266.242188 220.460938 267.1875 C 216.464844 271.8125 212.652344 276.566406 209.414062 281.773438 C 202.765625 292.453125 198.054688 303.8125 196.855469 316.453125 C 196.824219 316.773438 196.6875 317.082031 196.597656 317.390625 C 196.820312 317.667969 196.871094 317.9375 196.8125 318.203125 C 196.796875 318.269531 196.777344 318.335938 196.75 318.402344 C 196.703125 318.515625 196.640625 318.625 196.566406 318.734375 C 196.640625 318.828125 196.6875 318.917969 196.714844 319.007812 C 196.738281 319.097656 196.746094 319.191406 196.738281 319.28125 C 196.734375 319.308594 196.722656 319.335938 196.71875 319.359375 C 196.691406 319.515625 196.632812 319.671875 196.566406 319.828125 C 196.832031 321.929688 196.871094 324.054688 197.054688 326.167969 C 197.167969 327.433594 197.328125 328.699219 197.621094 329.957031 C 198.925781 335.558594 201.242188 340.621094 204.933594 345.117188 C 201.378906 343.476562 197.90625 341.738281 194.847656 339.265625 C 187.75 334.40625 182.519531 328.066406 179.503906 319.957031 C 174.675781 306.964844 175.332031 294.054688 179.640625 281.039062 C 184.515625 266.316406 193.503906 254.417969 204.816406 244.246094 C 214.441406 235.589844 225.53125 229.136719 237.738281 224.625 C 242.605469 222.828125 247.621094 221.613281 252.574219 220.15625 C 254.042969 219.722656 254.964844 219.734375 256.265625 220.628906 C 257.492188 221.46875 259.265625 221.71875 260.746094 221.386719 C 263.855469 220.691406 267.167969 220.761719 269.984375 218.886719 C 272.972656 216.902344 276.25 217.609375 279.28125 218.574219 C 280.542969 218.972656 281.355469 218.867188 282.128906 218.203125 C 283.714844 216.847656 285.53125 216.253906 287.535156 215.863281 C 291.277344 215.132812 294.863281 213.914062 298.097656 211.53125 C 298.375 212.699219 297.578125 213.320312 297.117188 213.863281 C 295.265625 216.054688 293.222656 218.082031 291.34375 220.25 C 290.984375 220.660156 290.933594 220.667969 290.507812 220.433594 C 289.707031 219.996094 288.867188 219.578125 287.996094 219.332031 C 286.945312 219.035156 286.132812 219.453125 285.800781 220.5625 C 285.464844 221.699219 286.042969 222.132812 287.089844 222.277344 C 287.527344 222.339844 287.925781 222.476562 288.300781 222.660156 C 288.929688 222.96875 289.488281 223.410156 290.046875 223.847656 C 292.136719 224.828125 293.957031 226.070312 295.496094 227.597656 C 295.527344 227.632812 295.554688 227.667969 295.585938 227.699219 C 296.699219 228.824219 297.664062 230.09375 298.472656 231.527344 C 298.75 232.019531 299.011719 232.527344 299.25 233.058594 C 302.382812 239.945312 304.757812 247.078125 305.671875 254.585938 C 305.8125 255.738281 305.917969 256.898438 305.988281 258.058594 C 306.199219 261.542969 306.0625 265.050781 305.394531 268.519531 C 305.441406 269.019531 305.433594 269.515625 305.367188 270.003906 C 305.324219 270.292969 305.269531 270.578125 305.175781 270.867188 C 305.09375 271.125 304.988281 271.386719 304.855469 271.648438 C 304.484375 270.695312 304.617188 269.785156 304.730469 268.875 C 304.398438 264.910156 303.808594 261.003906 302.328125 257.273438 C 302.058594 256.589844 301.949219 255.835938 302.75 255.300781 Z M 257.335938 63.828125 C 265.308594 61.945312 273.300781 60.824219 281.507812 62.15625 C 283.28125 62.441406 283.761719 63.125 283.753906 64.882812 C 283.695312 76.910156 281.730469 88.636719 278.507812 100.1875 C 277.523438 103.710938 276.664062 107.269531 275.652344 110.78125 C 275.582031 111.023438 275.53125 111.285156 275.46875 111.550781 C 275.441406 111.683594 275.40625 111.816406 275.367188 111.945312 C 275.171875 112.585938 274.816406 113.136719 273.835938 113.171875 C 273.902344 112.363281 274.023438 111.570312 274.164062 110.78125 C 274.382812 109.5625 274.667969 108.363281 274.996094 107.171875 C 275.535156 105.210938 276.164062 103.265625 276.683594 101.300781 C 278.890625 92.957031 280.746094 84.5625 281.449219 75.925781 C 281.742188 72.363281 282.082031 68.8125 282.101562 65.234375 C 282.105469 65.160156 282.113281 65.078125 282.121094 64.996094 C 282.121094 64.953125 282.125 64.914062 282.128906 64.871094 C 282.128906 64.816406 282.125 64.761719 282.117188 64.710938 C 282.105469 64.648438 282.089844 64.585938 282.058594 64.527344 C 282.042969 64.503906 282.023438 64.480469 282.003906 64.460938 C 282.050781 64.460938 282.097656 64.417969 282.132812 64.328125 C 282.152344 64.28125 282.105469 64.207031 282.089844 64.148438 C 282.027344 64.222656 281.964844 64.296875 281.902344 64.371094 C 281.886719 64.363281 281.875 64.351562 281.855469 64.339844 C 281.855469 64.339844 281.886719 64.386719 281.886719 64.386719 C 281.378906 64.3125 280.871094 64.246094 280.363281 64.183594 C 278.835938 64 277.3125 63.882812 275.792969 63.828125 C 274.78125 63.789062 273.769531 63.777344 272.761719 63.792969 C 271.75 63.804688 270.742188 63.84375 269.734375 63.90625 C 265.707031 64.15625 261.695312 64.777344 257.703125 65.667969 C 256.527344 65.929688 255.378906 66.320312 254.222656 66.648438 C 254.554688 64.929688 255.671875 64.222656 257.335938 63.828125 Z M 99.460938 188.300781 C 96.285156 193.242188 93.605469 198.464844 91.445312 204.351562 C 90.859375 203.183594 90.628906 202.449219 90.949219 201.613281 C 94.449219 192.492188 99.0625 184.035156 105.75 176.824219 C 106.417969 176.097656 107.289062 175.5625 108.039062 174.910156 C 108.375 174.613281 108.742188 174.433594 109.136719 174.613281 C 109.632812 174.839844 109.375 175.335938 109.328125 175.679688 C 109.242188 176.332031 109.210938 177.027344 108.5625 177.46875 C 104.511719 180.222656 102.023438 184.316406 99.460938 188.300781 Z M 99.460938 188.300781 " fill-opacity="1" fill-rule="nonzero"/></g></svg>